<svg width="264" height="270" viewBox="0 0 264 270" fill="none" xmlns="http://www.w3.org/2000/svg">
<g clip-path="url(#clip0_438_150)">
<rect width="264" height="270" fill="white"/>
<path d="M63.0254 195H59.3838V172.151H63.0254V195ZM85.6704 172.151H89.312V195H85.622L75.1162 178V195H71.5068V172.151H75.1645L85.6704 189.183V172.151ZM100.758 195H97.1488V172.151H111.103V175.261H100.758V182.867H109.62V185.751H100.758V195ZM121.26 195H117.618V172.151H121.26V195ZM143.905 172.151H147.547V195H143.857L133.351 178V195H129.741V172.151H133.399L143.905 189.183V172.151ZM159.621 195H155.98V172.151H159.621V195ZM177.851 195H174.21V175.261H166.507V172.151H185.553V175.261H177.851V195ZM205.765 191.922V195H191.811V172.151H205.765V175.261H195.42V182.125H204.879V185.042H195.42V191.922H205.765ZM70.083 214.059L75.9482 225H72.3228L66.8926 214.059H70.083ZM62.0586 225H58.4331V202.151H67.376C69.7178 202.151 71.5171 202.758 72.7739 203.972C74.0415 205.186 74.6753 206.883 74.6753 209.064C74.6753 211.234 74.0415 212.931 72.7739 214.156C71.5171 215.38 69.7178 215.993 67.376 215.993H62.0586V225ZM62.0586 205.261V212.883H67.2793C68.5361 212.883 69.4761 212.534 70.0991 211.835C70.7329 211.137 71.0498 210.208 71.0498 209.048C71.0498 207.898 70.7329 206.98 70.0991 206.292C69.4761 205.605 68.5361 205.261 67.2793 205.261H62.0586ZM96.755 202.151H100.397V216.831C100.397 219.473 99.6071 221.525 98.028 222.986C96.4488 224.447 94.2145 225.177 91.3248 225.177C88.4459 225.177 86.2169 224.447 84.6378 222.986C83.0695 221.525 82.2853 219.473 82.2853 216.831V202.151H85.8946V216.814C85.8946 218.404 86.3458 219.656 87.2482 220.569C88.1505 221.471 89.5148 221.922 91.3409 221.922C93.1564 221.922 94.5099 221.471 95.4015 220.569C96.3038 219.656 96.755 218.404 96.755 216.814V202.151ZM123.363 202.151H127.004V225H123.314L112.808 208V225H109.199V202.151H112.857L123.363 219.183V202.151ZM159.767 202.151H163.537L157.14 225H153.289L148.762 207.292L144.137 225H140.334L133.953 202.151H137.724L142.445 220.037L146.957 202.151H150.534L155.03 220.037L159.767 202.151ZM171.357 219.167L169.294 225H165.411L173.887 202.151H177.963L186.391 225H182.54L180.477 219.167H171.357ZM172.291 216.283H179.542L175.933 206.147L172.291 216.283ZM203.201 202.151H207.391L198.786 215.123V225H195.145V215.123L186.508 202.151H190.713L196.949 212.109L203.201 202.151Z" fill="black"/>
<path d="M60.312 150L60.78 148.44L65.46 146.412C67.956 145.372 69.464 143.5 69.984 140.796L78.564 95.4C79.604 89.576 80.748 83.18 81.996 76.212C83.244 69.244 84.388 62.692 85.428 56.556C85.948 53.436 84.7 51.2 81.684 49.848L78.564 48.6L79.032 47.04H116.628L116.316 48.6L111.792 50.316C109.296 51.252 107.684 53.176 106.956 56.088L98.376 101.484C97.336 107.308 96.192 113.704 94.944 120.672C93.696 127.64 92.5 134.192 91.356 140.328C91.044 143.344 92.24 145.528 94.944 146.88L98.532 148.44L98.064 150H60.312ZM114.199 150L114.511 148.44L117.007 147.504C121.167 145.84 123.611 142.928 124.339 138.768L132.451 95.4C133.491 89.472 134.583 83.336 135.727 76.992C136.871 70.544 137.963 64.252 139.003 58.116C139.835 53.852 138.223 50.888 134.167 49.224L132.607 48.6L132.919 47.04H172.231C183.983 47.04 192.667 49.224 198.283 53.592C203.899 57.856 206.707 63.68 206.707 71.064C206.707 77.408 204.523 83.024 200.155 87.912C195.787 92.8 189.547 96.44 181.435 98.832L197.347 139.392C199.011 143.344 201.611 146.152 205.147 147.816L206.239 148.44L205.771 150H177.847L162.091 102.576H152.107C151.067 107.984 150.027 113.704 148.987 119.736C147.947 125.768 146.855 132.164 145.711 138.924C144.983 143.084 146.595 145.944 150.547 147.504L152.419 148.44L152.107 150H114.199ZM152.731 99.456H160.531C168.955 99.248 175.247 96.7 179.407 91.812C183.671 86.82 185.803 80.06 185.803 71.532C185.803 57.284 179.875 50.16 168.019 50.16H162.091L152.731 99.456Z" fill="#0618F3"/>
<line x1="60" y1="160.5" x2="208" y2="160.5" stroke="black"/>
</g>
<defs>
<clipPath id="clip0_438_150">
<rect width="264" height="270" fill="white"/>
</clipPath>
</defs>
</svg>
