<svg width="264" height="270" viewBox="0 0 264 270" fill="none" xmlns="http://www.w3.org/2000/svg">
<g clip-path="url(#clip0_469_2)">
<rect width="264" height="270" fill="white"/>
<path d="M38.38 190L38.95 188.1L44.65 185.63C47.69 184.363 49.5267 182.083 50.16 178.79L60.61 123.5C61.8767 116.407 63.27 108.617 64.79 100.13C66.31 91.6433 67.7033 83.6633 68.97 76.19C69.6033 72.39 68.0833 69.6667 64.41 68.02L60.61 66.5L61.18 64.6H106.97L106.59 66.5L101.08 68.59C98.04 69.73 96.0767 72.0733 95.19 75.62L84.74 130.91C83.4733 138.003 82.08 145.793 80.56 154.28C79.04 162.767 77.5833 170.747 76.19 178.22C75.81 181.893 77.2667 184.553 80.56 186.2L84.93 188.1L84.36 190H38.38ZM104.012 190L104.392 188.1L107.432 186.96C112.498 184.933 115.475 181.387 116.362 176.32L126.242 123.5C127.508 116.28 128.838 108.807 130.232 101.08C131.625 93.2267 132.955 85.5633 134.222 78.09C135.235 72.8967 133.272 69.2867 128.332 67.26L126.432 66.5L126.812 64.6H174.692C189.005 64.6 199.582 67.26 206.422 72.58C213.262 77.7733 216.682 84.8667 216.682 93.86C216.682 101.587 214.022 108.427 208.702 114.38C203.382 120.333 195.782 124.767 185.902 127.68L205.282 177.08C207.308 181.893 210.475 185.313 214.782 187.34L216.112 188.1L215.542 190H181.532L162.342 132.24H150.182C148.915 138.827 147.648 145.793 146.382 153.14C145.115 160.487 143.785 168.277 142.392 176.51C141.505 181.577 143.468 185.06 148.282 186.96L150.562 188.1L150.182 190H104.012ZM150.942 128.44H160.442C170.702 128.187 178.365 125.083 183.432 119.13C188.625 113.05 191.222 104.817 191.222 94.43C191.222 77.0767 184.002 68.4 169.562 68.4H162.342L150.942 128.44Z" fill="#0618F3"/>
</g>
<defs>
<clipPath id="clip0_469_2">
<rect width="264" height="270" fill="white"/>
</clipPath>
</defs>
</svg>
