<svg width="491" height="93" viewBox="0 0 491 93" fill="none" xmlns="http://www.w3.org/2000/svg">
<path fill-rule="evenodd" clip-rule="evenodd" d="M343.665 19.0479C336.234 19.0479 330.661 21.8354 327.875 26.4813L326.481 29.2688V20.4417H314.406V74.3333H327.41V42.2771C327.41 34.8437 331.59 30.1979 339.021 30.1979C345.987 30.1979 349.702 34.3792 349.702 41.8125V74.3333H362.706V39.4896C362.242 26.9458 355.276 19.0479 343.665 19.0479ZM280.968 19.0479C265.642 19.0479 256.353 28.8042 256.353 44.1354V51.5687C256.353 66.4354 266.106 75.2625 281.432 75.2625C291.649 75.2625 299.08 71.5458 303.26 63.6479L295.365 59.0021C292.114 63.6479 286.541 66.4354 281.432 66.4354C273.537 66.4354 268.893 61.7896 268.893 53.4271V51.1042H305.118V42.2771C304.653 28.3396 295.365 19.0479 280.968 19.0479ZM293.043 43.2063H268.893V41.8125C268.893 32.9854 273.073 27.875 280.968 27.875C288.399 27.875 293.043 32.5208 293.043 40.8833V43.2063ZM490.887 11.6146V1.39375H446.303V11.6146H462.093V64.1125H446.303V74.3333H490.887V64.1125H475.097V11.6146H490.887ZM151.393 0C131.423 0 118.884 12.5437 118.884 32.5208V43.2063C118.884 63.1833 131.423 75.7271 151.393 75.7271C171.364 75.7271 183.903 63.1833 183.903 43.2063V32.5208C183.903 12.5437 171.364 0 151.393 0ZM170.435 44.1354C170.435 57.6083 163.468 65.0417 151.393 65.0417C139.318 65.0417 132.352 57.6083 132.352 44.1354V31.5917C132.352 18.1187 139.318 10.6854 151.393 10.6854C163.468 10.6854 170.435 18.1187 170.435 31.5917V44.1354ZM224.772 19.5125C217.806 19.5125 212.233 22.3 208.982 26.9458L207.589 28.8042V20.4417H195.514V92.9167H208.518V66.9L209.911 68.7583C212.697 72.9396 218.735 75.7271 225.237 75.7271C236.383 75.7271 247.529 68.2938 247.529 52.0333V42.7417C247.065 31.1271 240.098 19.0479 224.772 19.5125ZM234.061 51.5687C234.061 60.3958 228.952 65.5062 221.057 65.5062C213.626 65.5062 208.053 59.9312 208.053 51.5687V43.6708C208.053 35.3083 213.162 29.7333 221.057 29.7333C228.952 29.7333 234.061 35.3083 234.061 43.6708V51.5687ZM398.003 1.39375L371.995 74.3333H384.999L390.107 58.5375H420.295L425.404 73.8688H438.408L412.4 0.92917L398.003 1.39375ZM393.358 48.3167L404.969 11.6146L416.58 48.3167H393.358ZM85.4451 38.0958C87.7673 31.5917 86.8384 24.6229 83.5874 19.0479C78.4788 10.2208 68.2614 5.575 58.5085 7.89792C52.9354 1.85834 44.5758 -0.929174 36.2162 0.464576C27.8565 2.32291 21.3546 8.3625 18.568 16.2604C12.0661 17.6542 6.49301 21.8354 3.24204 27.4104C-1.86663 36.2375 -0.937778 47.3875 6.02858 54.8208C3.70646 61.325 4.63531 68.2938 7.88628 73.8688C12.9949 82.6959 23.2123 87.3417 32.9652 85.0188C37.6094 90.1292 43.647 92.9167 50.6133 92.9167C60.8306 92.9167 69.6547 86.4125 72.9057 76.6563C79.4076 75.2625 84.9807 71.0812 88.2317 65.5062C93.3403 56.6792 92.4115 45.5292 85.4451 38.0958ZM50.6133 86.8771C46.4335 86.8771 42.7181 85.4833 39.4671 82.6958L39.9316 82.2313L58.5085 71.5459C59.4374 71.0813 59.9018 70.1521 59.9018 68.7583V42.7417L67.797 47.3875V69.2229C67.797 78.9792 60.3662 86.8771 50.6133 86.8771ZM12.9949 70.6167C11.1373 66.9 10.2084 63.1833 11.1373 59.0021L11.6017 59.4667L30.1786 70.1521C31.1075 70.6167 32.0363 70.6167 33.4296 70.1521L56.1864 57.1438V65.9708C56.1864 65.9708 56.1864 65.9708 56.1864 66.4354L37.6094 77.1208C28.7854 81.7667 18.1036 78.9792 12.9949 70.6167ZM8.35071 30.6625C10.2084 26.9458 13.4594 24.6229 17.6392 23.2292V45.0646C17.6392 45.9938 18.1036 46.9229 19.0325 47.8521L41.3248 60.8604L33.4296 65.5062C33.4296 65.5062 33.4296 65.5062 32.9652 65.5062L14.3882 54.8208C6.493 49.2458 3.70646 38.5604 8.35071 30.6625ZM72.4413 45.5292L50.1489 32.5208L58.0441 27.875C58.0441 27.875 58.0441 27.875 58.5085 27.875L77.0855 38.5604C83.123 41.8125 86.374 48.3167 85.9095 55.2854C85.4451 61.7896 80.8009 67.8292 74.7634 70.1521V48.3167C74.299 46.9229 73.3701 45.9938 72.4413 45.5292ZM80.3364 33.9146L79.872 33.45L61.2951 22.7646C60.3662 22.3 58.9729 22.3 58.0441 22.7646L35.7517 35.7729V26.9458C35.7517 26.9458 35.7517 26.9458 35.7517 26.4813L54.3287 15.7958C60.3662 12.5438 67.3326 12.5437 72.9057 16.725C78.4788 20.4417 81.2653 26.9458 80.3364 33.9146ZM31.5719 49.7104L23.6767 45.0646V23.2292C23.6767 16.2604 27.3921 10.2208 33.894 7.43333C39.9316 4.64583 47.3623 5.57499 52.471 9.75624L52.0066 10.2208L33.4296 20.9063C32.5008 21.3708 32.0363 22.3 32.0363 23.6937L31.5719 49.7104ZM35.7517 40.4188L45.9691 34.8438L56.1864 40.4188V52.0333L45.9691 57.6083L35.7517 52.0333V40.4188Z" fill="white"/>
</svg>
