<svg width="523" height="100" viewBox="0 0 523 100" fill="none" xmlns="http://www.w3.org/2000/svg">
<g clip-path="url(#clip0_455_430)">
<mask id="mask0_455_430" style="mask-type:luminance" maskUnits="userSpaceOnUse" x="0" y="0" width="523" height="100">
<path d="M0 0H523V100H0V0Z" fill="white"/>
</mask>
<g mask="url(#mask0_455_430)">
<path d="M36.2815 57.3524C35.054 59.8094 31.5503 59.8094 30.3226 57.3524L27.3866 51.4767C26.9177 50.5384 26.9177 49.4337 27.3866 48.4954L30.3226 42.6194C31.5503 40.1627 35.054 40.1627 36.2815 42.6194L39.2176 48.4954C39.6867 49.4337 39.6867 50.5384 39.2176 51.4767L36.2815 57.3524ZM36.2815 90.676C35.054 93.1327 31.5503 93.1327 30.3226 90.676L27.3866 84.8C26.9177 83.8617 26.9177 82.757 27.3866 81.8187L30.3226 75.943C31.5503 73.486 35.054 73.486 36.2815 75.943L39.2176 81.8187C39.6867 82.757 39.6867 83.8617 39.2176 84.8L36.2815 90.676Z" fill="white"/>
<path d="M0 78.0274C0 75.0577 3.58818 73.5704 5.68674 75.6704L20.9549 90.9484C23.0535 93.0484 21.5672 96.6387 18.5994 96.6387H3.33121C1.49143 96.6387 0 95.1464 0 93.3054V78.0274ZM0 61.9347C0 62.8187 0.350966 63.6667 0.975688 64.2917L32.3264 95.6624C32.9511 96.2874 33.7985 96.6387 34.6819 96.6387H51.9016C54.8694 96.6387 56.3558 93.0484 54.2571 90.9484L5.68674 42.3471C3.58818 40.2471 0 41.7344 0 44.7041V61.9347ZM0 28.6114C0 29.4954 0.350966 30.3433 0.975688 30.9684L65.6285 95.6624C66.2531 96.2874 67.1006 96.6387 67.984 96.6387H85.2037C88.1715 96.6387 89.6579 93.0484 87.5592 90.9484L5.68674 9.02378C3.58821 6.92392 0 8.41112 0 11.3808V28.6114ZM33.3021 28.6114C33.3021 29.4954 33.6532 30.3433 34.2778 30.9684L94.2196 90.9484C96.3183 93.0484 99.9063 91.5611 99.9063 88.5914V71.3607C99.9063 70.4767 99.5552 69.6287 98.9306 69.0037L38.9888 9.02375C36.8902 6.92388 33.3021 8.41112 33.3021 11.3808V28.6114ZM72.2909 9.02378C70.1923 6.92388 66.6042 8.41112 66.6042 11.3808V28.6114C66.6042 29.4954 66.9553 30.3433 67.5799 30.9684L94.2196 57.6251C96.3183 59.7251 99.9063 58.2377 99.9063 55.2681V38.0374C99.9063 37.1534 99.5552 36.3054 98.9306 35.6804L72.2909 9.02378Z" fill="white"/>
<path d="M141.659 78.4361L110.303 47.0604C108.205 44.9604 104.617 46.4478 104.617 49.4174V93.3054C104.617 95.1464 106.108 96.6388 107.948 96.6388H156.519C158.359 96.6388 159.85 95.1464 159.85 93.3054V89.3088C159.85 87.4678 158.352 85.9974 156.528 85.7598C150.929 85.0304 145.692 82.4718 141.659 78.4361ZM120.602 85.9754C117.66 85.9754 115.273 83.5868 115.273 80.6434C115.273 77.7004 117.66 75.3118 120.602 75.3118C123.543 75.3118 125.93 77.7004 125.93 80.6434C125.93 83.5868 123.543 85.9754 120.602 85.9754Z" fill="white"/>
<path d="M0 93.3054C0 95.1464 1.49143 96.6387 3.33121 96.6387H18.5994C21.5672 96.6387 23.0535 93.0484 20.955 90.9484L5.68674 75.6704C3.58818 73.5704 0 75.0577 0 78.0274V93.3054ZM33.3021 36.6567L5.68674 9.02377C3.58818 6.92387 0 8.41111 0 11.3808V28.6114C0 29.4954 0.350966 30.3433 0.975688 30.9684L33.3021 63.3154V36.6567ZM5.68674 42.3471C3.58818 40.2471 0 41.7344 0 44.7041V61.9347C0 62.8187 0.350966 63.6667 0.975688 64.2917L33.3021 96.6387V69.9801L5.68674 42.3471Z" fill="white"/>
<path d="M66.6043 38.0374C66.6043 37.1534 66.2535 36.3054 65.6286 35.6804L38.9889 9.02377C36.8906 6.92387 33.3022 8.41111 33.3022 11.3808V28.6114C33.3022 29.4954 33.6533 30.3433 34.2779 30.9684L66.6043 63.3154V38.0374ZM33.3022 96.6387H51.9017C54.8695 96.6387 56.3559 93.0484 54.2572 90.9484L33.3022 69.9801V96.6387ZM33.3022 36.6567V61.9347C33.3022 62.8187 33.6533 63.6667 34.2779 64.2917L66.6043 96.6387V71.3607C66.6043 70.4767 66.2535 69.6291 65.6286 69.0037L33.3022 36.6567Z" fill="white"/>
<path d="M198.705 83.3335H212.39V60.6268H223.823C236.381 60.6268 244.436 53.1738 244.436 41.6468C244.436 30.1203 236.381 22.667 223.823 22.667H198.705V83.3335ZM212.39 48.9268V34.3672H222.437C227.634 34.3672 230.752 37.1402 230.752 41.6468C230.752 46.1538 227.634 48.9268 222.437 48.9268H212.39ZM269.193 84.0268C282.532 84.0268 292.232 74.4935 292.232 61.4935C292.232 48.4935 282.532 38.9602 269.193 38.9602C255.682 38.9602 246.155 48.4935 246.155 61.4935C246.155 74.4935 255.682 84.0268 269.193 84.0268ZM258.8 61.4935C258.8 54.5602 262.957 49.7935 269.193 49.7935C275.343 49.7935 279.5 54.5602 279.5 61.4935C279.5 68.4268 275.343 73.1935 269.193 73.1935C262.957 73.1935 258.8 68.4268 258.8 61.4935ZM314.131 84.0268C324.352 84.0268 331.28 77.6135 331.28 70.0735C331.28 52.3935 307.809 58.1135 307.809 51.1802C307.809 49.2738 309.801 48.0605 312.659 48.0605C315.604 48.0605 319.155 49.8802 320.281 53.8668L330.501 49.6202C328.509 43.2935 321.147 38.9602 312.226 38.9602C302.612 38.9602 296.636 44.6802 296.636 51.5268C296.636 68.0802 319.761 63.4868 319.761 70.3335C319.761 72.7602 317.509 74.4072 314.131 74.4072C309.281 74.4072 305.903 71.0272 304.864 66.9538L294.644 70.9402C296.896 77.5268 303.478 84.0268 314.131 84.0268ZM364.201 82.9005L363.335 71.8938C361.863 72.6738 359.957 72.9335 358.398 72.9335C355.28 72.9335 353.202 70.6805 353.202 66.7802V50.2268H363.768V39.6535H353.202V27.0003H340.47V39.6535H333.541V50.2268H340.47V68.4268C340.47 79.0005 347.658 84.0268 357.099 84.0268C359.697 84.0268 362.122 83.5938 364.201 82.9005ZM408.593 22.667V46.2402H384.515V22.667H370.83V83.3335H384.515V57.9402H408.593V83.3335H422.364V22.667H408.593ZM452.738 84.0268C466.076 84.0268 475.777 74.4935 475.777 61.4935C475.777 48.4935 466.076 38.9602 452.738 38.9602C439.227 38.9602 429.699 48.4935 429.699 61.4935C429.699 74.4935 439.227 84.0268 452.738 84.0268ZM442.345 61.4935C442.345 54.5602 446.502 49.7935 452.738 49.7935C458.887 49.7935 463.045 54.5602 463.045 61.4935C463.045 68.4268 458.887 73.1935 452.738 73.1935C446.502 73.1935 442.345 68.4268 442.345 61.4935ZM500.351 81.9468C505.115 81.9468 509.359 80.3002 511.611 77.4402V81.6002C511.611 86.4535 507.713 89.8338 501.737 89.8338C497.493 89.8338 493.769 87.7535 493.162 84.2002L481.556 86.0202C483.115 94.2535 491.517 99.8005 501.737 99.8005C515.162 99.8005 524.083 91.9135 524.083 80.2135V39.6535H511.524V43.3802C509.185 40.6935 505.201 38.9602 500.091 38.9602C487.966 38.9602 480.344 47.2802 480.344 60.4535C480.344 73.6268 487.966 81.9468 500.351 81.9468ZM492.729 60.4535C492.729 53.9535 496.54 49.7935 502.43 49.7935C508.406 49.7935 512.217 53.9535 512.217 60.4535C512.217 66.9535 508.406 71.1135 502.43 71.1135C496.54 71.1135 492.729 66.9535 492.729 60.4535Z" fill="white"/>
</g>
</g>
<defs>
<clipPath id="clip0_455_430">
<rect width="523" height="100" fill="white"/>
</clipPath>
</defs>
</svg>
