<svg width="546" height="125" viewBox="0 0 546 125" fill="none" xmlns="http://www.w3.org/2000/svg">
<g clip-path="url(#clip0_447_168)">
<path d="M287.204 75.521C273.391 75.521 262.445 86.1981 262.445 100.261C262.445 114.323 273.652 125 287.204 125C301.017 125 311.963 114.063 311.963 100.261C311.963 86.1981 301.017 75.521 287.204 75.521ZM287.204 85.4168C295.544 85.4168 301.799 91.6668 301.799 100.261C301.799 108.854 295.283 115.104 287.204 115.104C278.864 115.104 272.609 108.854 272.609 100.261C272.348 91.6668 278.864 85.4168 287.204 85.4168Z" fill="white"/>
<path d="M493.355 109.115V86.4583H505.083V76.5625H493.355V63.2812L483.191 66.4063V76.5625H474.59V86.4583H483.191V109.115C483.191 121.354 489.446 125.781 505.083 123.698V114.583C497.264 115.104 493.355 115.104 493.355 109.115Z" fill="white"/>
<path d="M546 114.323H522.805L546 86.4585V77.0835H510.035V86.4585H533.23L510.035 114.323V123.958H546V114.323Z" fill="white"/>
<path d="M140.214 3.125L150.639 0V65.8854H140.214V62.2396C135.523 65.625 129.528 67.4479 123.013 66.9271C111.546 65.8854 101.903 56.5104 100.86 44.7917C100.86 43.75 100.6 42.9688 100.6 41.9271C100.6 41.1458 100.6 40.3646 100.86 39.5833C100.86 39.3229 100.86 39.3229 100.86 39.0625V38.8021V38.5417C100.86 38.0208 101.121 37.5 101.121 36.9792C101.121 36.7188 101.121 36.4583 101.381 36.4583V36.1979V35.9375C101.381 35.4167 101.642 35.1563 101.642 34.6354C101.642 34.375 101.903 34.1146 101.903 33.8542V33.5938C102.163 33.0729 102.163 32.8125 102.424 32.2917C102.424 32.0312 102.685 31.7708 102.685 31.5104C102.685 31.5104 102.685 31.5104 102.685 31.25C102.945 30.7292 103.206 30.4688 103.206 29.9479C103.466 29.6875 103.466 29.4271 103.727 29.1667C103.988 28.9063 104.248 28.3854 104.509 28.125C104.77 27.8646 105.03 27.6042 105.291 27.3438C105.551 27.0833 105.812 26.5625 106.073 26.3021C106.333 26.0417 106.594 25.7813 106.855 25.5208C107.115 25.2604 107.376 25 107.897 24.4792C108.158 24.2187 108.418 23.9583 108.679 23.6979C108.939 23.4375 109.461 23.1771 109.721 22.9167C110.764 22.3958 111.024 22.1354 111.285 21.875C111.546 21.6146 112.067 21.3542 112.328 21.0938H112.588C112.849 20.8333 113.109 20.8333 113.37 20.5729C113.891 20.3125 114.152 20.0521 114.673 20.0521H114.934C115.194 20.0521 115.455 19.7917 115.716 19.7917C116.237 19.5313 116.497 19.5313 117.019 19.2708H117.279C117.54 19.2708 117.801 19.0104 118.061 19.0104C118.582 18.75 118.843 18.75 119.364 18.75H119.625H119.886C120.146 18.75 120.407 18.75 120.667 18.4896C121.189 18.4896 121.71 18.2292 122.231 18.2292H122.492C122.752 18.2292 122.752 18.2292 123.013 18.2292C123.795 18.2292 124.837 17.9688 125.619 17.9688C131.092 17.9688 136.044 19.7917 140.214 22.6563V3.125ZM122.492 56.5104C131.874 58.5938 140.214 51.3021 140.214 42.4479V42.1875C140.214 34.1146 133.698 27.6042 125.619 27.6042C125.098 27.6042 124.577 27.6042 124.055 27.6042H123.795C123.795 27.6042 123.795 27.6042 123.534 27.6042C123.274 27.6042 122.752 27.6042 122.492 27.8646H122.231C121.971 27.8646 121.71 28.125 121.449 28.125C121.189 28.125 120.928 28.3854 120.928 28.3854C120.667 28.3854 120.407 28.6458 120.146 28.6458C119.886 28.6458 119.886 28.9063 119.625 28.9063C119.364 29.1667 119.104 29.1667 118.843 29.4271C118.582 29.4271 118.582 29.6875 118.322 29.6875C118.061 29.9479 117.801 29.9479 117.54 30.2083C117.54 30.2083 117.54 30.2083 117.279 30.2083L117.019 30.4688C116.758 30.7292 116.497 30.9896 116.237 31.25C116.237 31.25 116.237 31.25 115.976 31.5104C115.716 31.7708 115.194 32.2917 114.934 32.5521C114.673 32.8125 114.412 33.3333 114.152 33.5938C114.152 33.5938 114.152 33.8542 113.891 33.8542C113.891 33.8542 113.891 33.8542 113.891 34.1146C113.631 34.375 113.631 34.6354 113.37 34.8958C113.37 35.1563 113.109 35.1563 113.109 35.4167C112.849 35.6771 112.849 35.9375 112.849 36.1979C112.849 36.4583 112.588 36.4583 112.588 36.7188C112.588 36.9792 112.328 37.2396 112.328 37.5C112.328 37.7604 112.328 38.0208 112.067 38.0208C112.067 38.2813 112.067 38.5417 111.806 39.0625C111.806 39.3229 111.806 39.5833 111.806 39.5833C111.806 39.8438 111.806 40.3646 111.806 40.625V40.8854C111.806 41.1458 111.806 41.1458 111.806 41.4063C111.806 42.4479 111.806 43.4896 112.067 44.7917C112.588 51.0417 117.019 55.4688 122.492 56.5104Z" fill="white"/>
<path d="M39.3539 19.0103V22.1353C35.4446 19.2707 30.2321 17.4478 25.0197 17.4478C10.425 17.4478 -1.30294 30.2082 0.26078 45.0519C1.56388 56.5103 10.9462 65.8853 22.4135 67.1873C28.929 67.7082 34.9233 65.8853 39.6145 62.4998V66.1457H50.0393V19.0103H39.3539ZM39.3539 42.4478C39.3539 51.5623 31.014 58.5936 21.6317 56.5103C16.1586 55.4686 11.7281 51.0415 10.425 45.3123C8.60064 35.9373 15.898 27.604 25.0197 27.604C32.8383 27.604 39.3539 34.1144 39.3539 42.4478Z" fill="white"/>
<path d="M340.631 76.0415V86.979C333.855 86.4582 326.036 89.5832 326.036 100.26V123.958H315.872V76.8228H326.036V84.6353C328.903 78.3853 334.637 76.0415 340.631 76.0415Z" fill="white"/>
<path d="M365.13 75.521C351.317 75.521 340.371 86.1981 340.371 100.261C340.371 114.323 351.577 125 365.13 125C378.942 125 389.889 114.063 389.889 100.261C390.149 86.1981 379.203 75.521 365.13 75.521ZM365.13 85.4168C373.469 85.4168 379.724 91.6668 379.724 100.261C379.724 108.854 373.209 115.104 365.13 115.104C356.79 115.104 350.535 108.854 350.535 100.261C350.535 91.6668 357.05 85.4168 365.13 85.4168Z" fill="white"/>
<path d="M457.129 76.8228L442.273 123.958H432.37L422.466 92.1873L412.563 123.958H402.659L387.804 76.8228H398.489L407.611 109.375L417.514 76.8228H427.157L437.061 109.375L446.183 76.8228H457.129Z" fill="white"/>
<path d="M470.681 76.8228H460.517V123.958H470.681V76.8228Z" fill="white"/>
<path d="M179.307 18.229V29.1665C172.531 28.6457 164.713 31.7707 164.713 42.4478V66.1457H154.548V19.0103H164.713V26.8228C167.579 20.5728 173.313 18.229 179.307 18.229Z" fill="white"/>
<path d="M240.553 75.5208C234.037 75.5208 229.085 77.8646 225.958 82.8125V57.0313L217.618 52.3438C217.097 53.125 216.576 53.9063 215.794 54.4271C213.188 56.5104 209.799 58.0729 205.369 58.0729C197.811 58.0729 191.817 54.1667 190.253 46.875H228.043C228.043 45.5729 228.304 44.0104 228.304 42.7083C228.304 29.1667 218.661 17.9688 204.587 17.9688C189.992 17.9688 179.828 28.6458 179.828 42.7083C179.828 56.7708 189.732 67.4479 205.369 67.4479C209.278 67.4479 212.666 66.6667 215.794 65.3646V123.958H225.958V98.6979C225.958 89.0625 231.17 85.1563 237.947 85.1563C244.201 85.1563 248.371 89.0625 248.371 96.0938V123.958H258.536V94.7917C258.536 82.5521 250.978 75.5208 240.553 75.5208ZM204.326 27.0833C210.581 27.0833 216.315 30.4688 217.879 38.5417H190.253C191.556 31.5104 196.768 27.0833 204.326 27.0833Z" fill="white"/>
<path d="M268.179 52.0835C265.833 55.4689 261.663 57.8127 255.929 57.8127C248.371 57.8127 242.377 54.1668 240.813 46.6147H278.343C278.603 45.3127 278.603 43.7502 278.603 42.4481C278.603 28.9064 268.96 17.7085 254.887 17.7085C240.032 17.7085 230.128 28.646 230.128 42.4481C230.128 56.5106 240.292 67.1877 255.669 67.1877C264.79 67.1877 272.088 63.2814 276.258 57.0314L268.179 52.0835ZM255.147 27.0835C261.402 27.0835 267.136 30.4689 268.7 38.5418H240.813C242.377 31.5106 247.59 27.0835 255.147 27.0835Z" fill="white"/>
<path d="M384.676 58.0729C390.41 58.0729 394.58 55.4688 396.925 52.3438L405.265 57.2917C400.835 63.8021 393.798 67.4479 384.676 67.4479C369.039 67.4479 359.135 56.7708 359.135 42.7083C359.135 28.6458 369.299 17.9688 383.894 17.9688C397.968 17.9688 407.611 29.1667 407.611 42.7083C407.611 44.0104 407.35 45.5729 407.35 46.875H369.821C371.124 54.1667 377.118 58.0729 384.676 58.0729ZM397.186 38.5417C395.883 30.4688 389.888 27.0833 383.634 27.0833C376.076 27.0833 370.863 31.5104 369.299 38.5417H397.186Z" fill="white"/>
<path d="M460.517 66.1458H470.681V57.0312H460.517V66.1458Z" fill="white"/>
<path d="M78.7077 17.7085C72.1922 17.7085 67.2404 20.0522 64.1129 25.0002V19.5314V18.7502H53.9487V22.6564V65.8856H64.1129V40.6252C64.1129 30.9897 69.3253 27.0835 76.1015 27.0835C82.617 27.0835 86.5263 30.7293 86.5263 38.021V65.8856H96.6905V37.2397C96.9511 25.0002 89.3931 17.7085 78.7077 17.7085Z" fill="white"/>
<path d="M422.727 66.146H412.562V19.0106H422.727V25.0002C425.854 20.0522 430.806 17.7085 437.321 17.7085C447.746 17.7085 455.304 24.7397 455.304 36.9793V65.8856H445.14V38.2814C445.14 31.2502 440.97 27.3439 434.715 27.3439C427.939 27.3439 422.727 31.2502 422.727 40.8856V66.146Z" fill="white"/>
<path d="M292.156 32.0314C292.156 28.646 295.283 27.0835 298.932 27.0835C302.581 27.0835 305.708 28.646 307.533 31.771L316.394 27.3439C313.006 21.3543 306.751 17.7085 298.932 17.7085C289.289 17.7085 281.731 23.1772 281.731 32.0314C281.731 41.9272 290.332 44.271 297.629 46.3543C302.841 47.9168 307.011 48.9585 307.011 52.6043C307.011 56.2502 303.623 57.8127 298.932 57.8127C294.501 57.8127 290.853 55.9897 289.028 52.6043L279.907 57.0314C283.034 63.2814 289.81 67.1877 298.671 67.1877C308.836 67.1877 317.175 61.9793 317.175 52.6043C317.175 42.4481 308.314 39.8439 301.278 38.021C296.586 36.7189 292.156 35.4168 292.156 32.0314Z" fill="white"/>
<path d="M338.286 27.0833C334.637 27.0833 331.51 28.6458 331.51 32.0313C331.51 35.6771 335.94 36.7187 340.892 38.2812C348.189 40.3646 356.79 42.7083 356.79 52.8646C356.79 62.2396 348.711 67.4479 338.286 67.4479C329.164 67.4479 322.648 63.5417 319.521 57.2917L328.643 52.8646C330.467 56.25 333.855 58.0729 338.546 58.0729C342.977 58.0729 346.626 56.5104 346.626 52.8646C346.626 49.4792 342.195 48.1771 337.243 46.6146C329.946 44.5313 321.345 42.1875 321.345 32.2917C321.345 23.4375 328.903 17.9688 338.546 17.9688C346.104 17.9688 352.62 21.6146 356.008 27.6042L347.147 32.0313C345.062 28.6458 341.934 27.0833 338.286 27.0833Z" fill="white"/>
</g>
<defs>
<clipPath id="clip0_447_168">
<rect width="546" height="125" fill="white"/>
</clipPath>
</defs>
</svg>
