<svg width="344" height="108" viewBox="0 0 344 108" fill="none" xmlns="http://www.w3.org/2000/svg">
<g clip-path="url(#clip0_447_209)">
<path d="M265.502 89.3287C263.306 86.766 261.477 83.6541 260.379 80.3592L260.013 79.444L259.647 78.5287L259.464 77.9796L259.098 76.8813L258.915 76.1491C258.732 75.5999 258.732 74.8677 258.549 74.1355C258.549 73.9525 258.549 73.5863 258.366 73.4033L258.183 72.1219C258.183 71.9389 258.183 71.5728 258.183 71.3897L258 70.4745L309.234 58.027C308.868 55.4643 308.136 52.7186 306.855 50.5219C305.026 46.3118 301.915 42.8338 297.889 40.4541C293.498 37.7084 288.74 35.8779 283.617 35.3287L282.702 35.1457C279.592 34.7796 276.664 34.7796 273.553 35.1457C265.502 36.0609 258 39.5389 251.962 45.0304C246.106 50.3389 242.081 57.4779 240.8 65.3491V65.7152C240.617 66.2643 240.617 66.6304 240.617 67.3626C240.617 68.0948 240.617 67.9118 240.434 68.2779C240.434 68.644 240.434 68.827 240.434 69.1931C240.434 69.7423 240.434 70.1084 240.434 70.6575V73.0372C240.617 77.2474 241.532 81.4575 242.996 85.3016C249.766 99.0304 263.123 108 278.128 108C284.349 108.183 290.387 106.719 296.06 103.973C301.549 101.227 306.306 97.1999 309.783 92.2575L308.868 90.0609C305.209 97.0169 280.14 105.62 265.502 89.3287ZM288.74 58.9423L258.183 66.2643C258.183 65.3491 258.183 64.4338 258.366 63.5186V63.3355C258.366 62.9694 258.366 62.7863 258.366 62.4202L258.549 61.1389C258.915 59.3084 259.281 57.2948 259.83 55.4643C260.928 51.9863 262.392 48.8745 264.587 45.9457C266.417 43.1999 268.979 41.0033 271.723 39.3558C274.468 37.7084 277.396 36.9762 280.689 36.9762C285.081 36.9762 288.192 38.2575 290.204 40.6372C290.936 41.5525 291.485 42.4677 292.034 43.383C294.047 48.6914 293.864 57.2948 288.74 58.9423Z" fill="white"/>
<path d="M174.013 90.0608C170.353 97.0167 145.468 105.62 130.647 89.3286C128.268 86.5828 126.438 83.2879 125.34 79.6269C124.06 75.5998 123.511 71.3896 123.511 67.1794C123.511 63.1523 124.06 59.3082 125.157 55.4642C126.255 51.9862 127.719 48.8744 129.915 45.9455C131.745 43.3828 134.123 41.0032 136.868 39.3557C139.613 37.7082 142.54 36.976 145.834 36.976C150.226 36.976 153.336 38.2574 155.349 40.6371C157.362 43.1998 158.46 46.4947 158.46 49.9727C158.46 51.8032 158.277 53.4506 157.728 55.0981L173.281 51.4371C167.609 36.793 148.945 34.7794 145.468 34.7794C115.826 34.2303 99.5405 62.2371 109.055 84.9354C114.911 98.6642 128.451 107.634 143.455 107.817C149.677 108 155.715 106.535 161.387 103.79C166.877 101.044 171.634 97.0167 175.111 92.0744L174.013 90.0608Z" fill="white"/>
<path d="M241.532 90.0608C237.872 97.0168 212.987 105.62 198.166 89.3286C195.787 86.5829 193.957 83.288 192.86 79.81C191.579 75.7829 191.03 71.5727 191.03 67.3625C191.03 63.3354 191.579 59.4914 192.677 55.6473C193.774 52.1693 195.238 49.0575 197.434 46.1286C199.264 43.3829 201.642 41.1863 204.387 39.5388C207.132 37.8914 210.06 37.1591 213.353 37.1591C217.745 37.1591 220.855 38.4405 222.868 40.8202C225.064 43.3829 226.162 46.6778 225.979 50.1558C225.979 51.9863 225.796 53.6337 225.247 55.2812L240.8 51.6202C235.128 36.9761 216.464 34.9625 212.987 34.9625C183.345 34.4134 167.06 62.4202 176.574 85.1185C182.43 98.8473 195.97 107.817 210.791 108C217.013 108.183 223.051 106.718 228.723 103.973C234.213 101.227 238.97 97.1998 242.447 92.2575L241.532 90.0608Z" fill="white"/>
<path d="M332.107 93.3559V0L310.149 5.30847H309.966V7.32203C310.698 7.32203 317.468 9.15254 317.468 13.7288V92.9898C317.468 103.058 310.332 104.339 305.575 104.705V106.353H344V104.705C339.243 104.522 332.29 103.058 332.107 93.3559Z" fill="white"/>
<path d="M66.7872 0L45.0128 5.30848H44.8298V6.95593C45.5617 6.95593 51.966 9.15254 50.3191 13.3627C42.0851 31.6678 15.3702 92.6237 13.9064 95.3695C9.33191 104.522 2.74468 104.522 0 104.888V106.536H34.034V104.888C34.034 104.888 21.0426 105.071 21.0426 98.2983C21.0426 94.2712 27.6298 78.1627 29.4596 73.5865L73.7404 62.7864C73.9234 63.1525 85.817 91.8915 85.817 98.1153C85.817 104.705 75.2042 104.888 74.8383 104.888V106.536H119.302V104.888C112.898 105.071 107.043 101.227 104.298 95.3695C103.2 92.6237 66.7872 0 66.7872 0ZM72.4596 58.9424L31.4723 69.0102C31.6553 68.461 53.9787 16.2915 54.5277 15.0102C55.4425 17.0237 72.4596 58.9424 72.4596 58.9424Z" fill="white"/>
</g>
<defs>
<clipPath id="clip0_447_209">
<rect width="344" height="108" fill="white"/>
</clipPath>
</defs>
</svg>
