<svg width="1187" height="124" viewBox="0 0 1187 124" fill="none" xmlns="http://www.w3.org/2000/svg">
<path d="M116.928 3.54297H0V32.7717H116.928V3.54297Z" fill="#D6D6D6"/>
<path d="M116.928 32.7715H0V61.9999H116.928V32.7715Z" fill="white"/>
<path d="M116.928 62H0V91.2285H116.928V62Z" fill="#A0A0A0"/>
<path d="M116.928 91.2285H0V120.457H116.928V91.2285Z" fill="#C2C2C2"/>
<path d="M221.455 38.0857V57.5715H248.03V66.4286H221.455V94.7716H210.825V29.2285H255.116V38.0857H221.455Z" fill="white"/>
<path d="M314.466 29.2285C320.667 29.2285 323.324 30.1144 325.982 31.8858C329.525 35.4287 332.183 39.8572 332.183 62.0001C332.183 84.1429 329.525 88.5714 325.982 92.1143C323.324 93.8857 321.553 94.7716 314.466 94.7716H294.978C288.777 94.7716 286.12 93.8857 283.463 92.1143C279.919 88.5714 277.262 84.1429 277.262 62.0001C277.262 39.8572 279.919 35.4287 283.463 31.8858C286.12 30.1144 287.892 29.2285 294.978 29.2285H314.466ZM290.549 85.0287C291.435 85.9144 292.321 85.9144 295.864 85.9144H313.58C317.124 85.9144 318.01 85.9144 318.895 85.0287C319.781 84.143 321.553 81.4858 321.553 62.0001C321.553 43.4001 319.781 39.8571 318.895 38.9714C318.01 38.0857 317.124 38.0857 313.58 38.0857H295.864C292.321 38.0857 291.435 38.0857 290.549 38.9714C289.663 39.8571 287.892 42.5143 287.892 62.0001C288.777 80.6001 289.663 84.143 290.549 85.0287Z" fill="white"/>
<path d="M413.678 67.3144C413.678 84.143 411.906 86.8002 408.363 90.343C404.82 93.0002 400.391 93.8858 391.533 93.8858H381.789C372.93 93.8858 368.501 93.0002 364.958 90.343C361.415 86.8002 359.643 83.2572 359.643 67.3144V29.2285H370.273V69.9714C370.273 81.4857 371.159 83.2572 372.93 84.1429C373.816 85.0286 375.588 85.9144 383.56 85.9144H389.761C396.847 85.9144 398.619 85.9143 400.391 84.1429C402.163 82.3715 402.162 82.3714 402.162 69.9714V29.2285H412.792V67.3144H413.678Z" fill="white"/>
<path d="M498.717 94.7718H487.201C484.544 94.7718 483.658 93.886 481.886 92.1145L455.312 43.4002H453.54V94.7718H442.91V29.2288H455.312C457.969 29.2288 458.855 30.1146 460.627 31.8861L486.316 77.943H488.087V28.3433H498.717V94.7718Z" fill="white"/>
<path d="M558.953 29.2285C566.925 29.2285 572.24 30.1142 575.784 33.6571C580.213 37.1999 582.87 46.0572 582.87 62.0001C582.87 77.9429 581.099 85.9144 575.784 90.343C572.24 93.8859 567.811 94.7716 558.953 94.7716H528.835V29.2285H558.953ZM566.925 39.8572C565.154 38.0858 562.496 38.0857 558.953 38.0857H540.351V85.9144H558.953C563.382 85.9144 565.154 85.9143 566.925 84.1429C569.583 81.4858 570.469 77.0573 570.469 62.8858C571.354 46.943 569.583 42.5143 566.925 39.8572Z" fill="white"/>
<path d="M656.393 94.7716H609.445V29.2285H656.393V38.0857H620.075V55.7999H650.192V64.6571H620.075V85.0287H656.393V94.7716Z" fill="white"/>
<path d="M721.058 69.0861C720.172 68.2004 717.515 68.2006 713.972 68.2006H694.483V95.6575H683.854V30.1147H721.058C725.487 30.1147 729.031 31.0006 730.802 32.7721C733.46 35.4292 735.231 38.9719 735.231 48.7148C735.231 60.2291 731.688 63.7718 723.716 64.6575C730.802 65.5433 733.46 67.3149 734.345 77.0578C734.345 85.9149 735.231 92.1147 735.231 95.6575H724.601C723.715 91.229 723.716 85.029 723.716 77.9433C722.83 71.7433 721.944 69.9718 721.058 69.0861ZM717.515 59.3435C720.172 59.3435 721.058 58.4577 721.944 58.4577C722.83 57.572 723.716 55.8005 723.716 48.7148C723.716 41.6291 722.83 39.8576 721.944 38.9719C721.058 38.0862 720.172 38.0861 717.515 38.0861H694.483V59.3435H717.515Z" fill="white"/>
<path d="M809.64 92.1147C807.869 93.8862 804.325 94.772 799.01 94.772H775.979C770.664 94.772 767.121 93.8862 765.349 92.1147C762.692 89.4576 761.806 85.9147 761.806 74.4005H772.436C772.436 82.3719 773.321 84.1434 773.321 85.0291C774.207 85.9149 775.093 85.9149 777.751 85.9149H797.239C799.896 85.9149 800.782 85.9149 801.668 85.0291C802.554 84.1434 802.554 81.4863 802.554 76.172C802.554 71.7434 802.554 69.9718 801.668 69.0861C800.782 68.2004 799.896 68.2006 797.239 68.2006L775.979 66.4291C770.664 65.5434 768.007 64.6577 766.235 62.8863C763.578 60.2291 762.692 57.5719 762.692 48.7148C762.692 39.8577 763.578 36.3149 767.121 32.7721C768.893 31.0006 772.436 30.1147 777.751 30.1147H799.01C804.325 30.1147 807.869 31.0006 809.64 32.7721C812.298 35.4292 813.183 38.0863 813.183 50.4863H802.554C802.554 42.5149 801.668 40.7434 801.668 40.7434C800.782 39.8577 799.896 39.8577 797.239 39.8577H779.522C776.865 39.8577 775.979 39.8577 775.093 40.7434C774.207 41.6291 774.207 44.2863 774.207 49.6006C774.207 54.0291 774.207 55.8005 775.093 56.6862C775.979 57.5719 776.865 57.5719 779.522 57.5719L800.782 59.3435C805.211 59.3435 808.754 60.2291 810.526 62.8863C813.184 65.5434 814.069 68.2004 814.069 77.9433C814.069 85.029 813.183 88.5719 809.64 92.1147Z" fill="white"/>
<path d="M888.478 38.0857V57.5715H915.053V66.4286H888.478V94.7716H877.849V29.2285H922.14V38.0857H888.478Z" fill="white"/>
<path d="M1000.98 67.3144C1000.98 84.143 999.206 86.8002 995.663 90.343C992.119 93.0002 987.69 93.8858 978.832 93.8858H969.088C960.23 93.8858 955.801 93.0002 952.257 90.343C948.714 86.8002 946.942 83.2572 946.942 67.3144V29.2285H957.572V69.9714C957.572 81.4857 958.458 83.2572 960.23 84.1429C961.116 85.0286 962.887 85.9144 970.86 85.9144H977.06C984.147 85.9144 985.919 85.9143 987.69 84.1429C989.462 82.3715 989.462 82.3714 989.462 69.9714V29.2285H1000.09V67.3144H1000.98Z" fill="white"/>
<path d="M1086.02 94.7718H1074.5C1071.84 94.7718 1070.96 93.886 1069.19 92.1145L1042.61 43.4002H1040.84V94.7718H1030.21V29.2288H1042.61C1045.27 29.2288 1046.15 30.1146 1047.93 31.8861L1073.61 77.943H1075.39V28.3433H1086.02V94.7718Z" fill="white"/>
<path d="M1146.25 29.2285C1154.22 29.2285 1159.54 30.1142 1163.08 33.6571C1167.51 37.1999 1170.17 46.0572 1170.17 62.0001C1170.17 77.9429 1168.4 85.9144 1163.08 90.343C1159.54 93.8859 1155.11 94.7716 1146.25 94.7716H1116.13V29.2285H1146.25ZM1154.22 39.8572C1152.45 38.0858 1149.8 38.0857 1146.25 38.0857H1127.65V85.9144H1146.25C1150.68 85.9144 1152.45 85.9143 1154.22 84.1429C1156.88 81.4858 1157.77 77.0573 1157.77 62.8858C1157.77 46.943 1156.88 42.5143 1154.22 39.8572Z" fill="white"/>
</svg>
