<svg width="416" height="104" viewBox="0 0 416 104" fill="none" xmlns="http://www.w3.org/2000/svg">
<g clip-path="url(#clip0_447_245)">
<path fill-rule="evenodd" clip-rule="evenodd" d="M266.988 73.6125C254.638 73.6125 244.725 63.2125 244.725 50.2125C244.725 37.2125 254.8 26.8125 266.988 26.8125C279.175 26.8125 289.25 37.375 289.25 50.2125C289.25 63.05 279.175 73.6125 266.988 73.6125ZM266.988 19.9875C250.9 19.9875 237.738 33.6375 237.738 50.2125C237.738 66.7875 250.9 80.4375 266.988 80.4375C283.075 80.4375 296.238 66.7875 296.238 50.2125C296.238 33.6375 283.075 19.9875 266.988 19.9875ZM206.537 21.6125H214.012L186.55 92.4625C183.788 99.45 177.125 104 169.65 104H165.75V97.0125H169.65C174.2 97.0125 178.425 94.25 180.05 89.8625L184.275 78.975L162.012 21.6125H169.488L188.012 69.3875L206.537 21.6125ZM416 78.8125H406.575L381.55 51.1875L378.95 53.625V78.8125H371.962V0H378.95V45.175L404.462 21.775H413.562L386.75 46.475L416 78.8125ZM311.675 50.2125C311.675 63.05 321.588 73.6125 333.938 73.6125C343.037 73.45 351.163 67.925 354.413 59.475H361.725C358.15 71.825 346.775 80.4375 333.938 80.6C317.85 80.6 304.688 66.95 304.688 50.375C304.688 33.8 317.85 20.15 333.938 20.15C346.938 20.3125 358.312 29.0875 361.887 41.6H354.575C351.325 32.9875 343.2 27.3 333.938 27.1375C321.588 26.8125 311.675 37.375 311.675 50.2125ZM220.837 78.8125H227.825V0H220.837V78.8125ZM29.25 73.6125C16.9 73.6125 6.9875 63.2125 6.9875 50.2125C6.9875 37.2125 16.9 26.8125 29.25 26.8125C41.6 26.8125 51.5125 37.375 51.5125 50.2125C51.5125 63.05 41.6 73.6125 29.25 73.6125ZM51.5125 30.7125C46.15 23.8875 37.8625 19.9875 29.25 19.9875C13.1625 19.9875 0 33.6375 0 50.2125C0 66.7875 13.1625 80.4375 29.25 80.4375C37.8625 80.4375 46.15 76.5375 51.5125 69.7125V72.3125C51.5125 85.15 41.275 95.55 28.4375 95.7125C21.775 95.7125 15.275 92.7875 11.05 87.5875H2.6C7.9625 96.85 17.7125 102.538 28.4375 102.7C45.175 102.538 58.5 89.05 58.3375 72.3125V21.6125H51.35V30.7125H51.5125ZM79.1375 29.25C83.85 24.2125 90.5125 21.2875 97.5 21.2875V28.275C87.2625 28.275 79.1375 36.5625 79.1375 46.8V78.975H72.15V21.6125H79.1375V29.25ZM128.537 26.8125C139.75 26.8125 149.337 34.775 151.45 45.6625H105.625C107.737 34.775 117.325 26.975 128.537 26.8125ZM158.925 52.65L158.762 49.075C158.275 32.3375 144.3 19.175 127.562 19.825C111.15 20.3125 98.15 33.8 98.3125 50.2125C98.475 67.1125 112.288 80.6 129.188 80.4375C141.7 80.4375 152.912 73.125 157.787 61.5875H149.988C145.6 68.9 137.637 73.45 129.188 73.45C117 73.6125 106.763 64.5125 105.3 52.4875H158.925V52.65Z" fill="white"/>
</g>
<defs>
<clipPath id="clip0_447_245">
<rect width="416" height="104" fill="white"/>
</clipPath>
</defs>
</svg>
