<svg width="183" height="114" viewBox="0 0 183 114" fill="none" xmlns="http://www.w3.org/2000/svg">
<path d="M56.7334 113.33C25.3969 113.33 0 87.9673 0 56.665C0 25.3627 25.3969 0 56.7334 0C60.8297 0 64.7894 0.443762 68.6468 1.26302L81.3111 26.4209C74.7229 22.0174 66.8717 19.2866 58.2695 19.0135C57.7575 18.9794 57.2113 18.9794 56.6993 18.9794C35.8424 19.0135 18.9794 35.9789 18.9794 56.7674C18.9794 77.5901 35.8765 94.5896 56.7676 94.5896C74.4157 94.5896 89.1964 81.6522 93.361 66.4278H53.0809V46.834H91.7907L108.415 79.9796C99.4371 99.5734 79.6726 113.33 56.7334 113.33Z" fill="white"/>
<path d="M126.745 113.022L115.719 91.1754L160.778 1.19409H182.932L126.745 113.022Z" fill="white"/>
</svg>
