<svg version="1.1" id="Layer_1" xmlns:x="ns_extend;" xmlns:i="ns_ai;" xmlns:graph="ns_graphs;" xmlns="http://www.w3.org/2000/svg" xmlns:xlink="http://www.w3.org/1999/xlink" x="0px" y="0px" viewBox="0 0 600 121.6" style="enable-background:new 0 0 600 121.6;" xml:space="preserve">
 <style type="text/css">
  .st0{fill:#FFFFFF;}
 </style>
 <metadata>
  <sfw xmlns="ns_sfw;">
   <slices>
   </slices>
   <sliceSourceBounds bottomLeftOrigin="true" height="121.6" width="600" x="32.6" y="32.6">
   </sliceSourceBounds>
  </sfw>
 </metadata>
 <g id="Layer_2_1_">
  <g id="Layer_1-2">
   <path class="st0" d="M184.8,48.9c-4.5,0-8.2-3.6-8.2-8.1c0-4.5,3.6-8.2,8.1-8.2c0,0,0,0,0,0c4.5-0.2,8.2,3.3,8.4,7.7
			c0,0.1,0,0.2,0,0.4c0,4.5-3.7,8.2-8.2,8.2C184.9,48.9,184.8,48.9,184.8,48.9z">
   </path>
   <path class="st0" d="M564.9,99.3c-9.9,0-17.6-9.3-17.6-21.2c-0.3-13.3,10.2-24.4,23.5-24.8c0.3,0,0.5,0,0.8,0c3,0,5.9,0.7,8.6,1.9
			l0.3,0.2v-9.7c0-4.5-0.5-4.8-2.8-5.4l-0.7-0.2l-3-0.9l20.5-6.7v54.8c0,4.9,0.7,6.1,3.6,7l1.8,0.5l-0.5,1.3l-18.8,3.1V90l-0.4,0.5
			C575.9,96,570.2,99.3,564.9,99.3z M572.3,55.9c-6.7,0-10,5.9-10,18.1c0,10.7,4,17.3,10.3,17.3c4.3,0,7.8-3.4,8-7.7V64.3
			C580.6,58,575,55.9,572.3,55.9L572.3,55.9z">
   </path>
   <path class="st0" d="M172.7,97.8l0.2-1.2l3.2-0.5c1.2-0.1,2.2-1.1,2.2-2.4V66.8c0-5.1-2.3-6.3-4.3-6.9l-1.2-0.3l19.5-6.3v40.3
			c0,1.2,0.8,2.2,2,2.4l3.3,0.5l0.2,1.2L172.7,97.8z">
   </path>
   <path class="st0" d="M389.8,121.6l0.2-1.2l3.2-0.5c1.2-0.1,2.2-1.1,2.2-2.4V67.2c0-3.4-1.5-6.3-3.6-7l-2-0.5l19.6-6.4v9.3l0.4-0.5
			c4.3-5.5,9.6-8.7,14.9-8.7c9.9,0,16.7,10.2,16.7,22.1c0,15.8-12.1,23.9-24,23.9c-2.7,0.1-5.4-0.4-7.8-1.5l-0.3-0.1v19.8
			c0,1.3,1,2.3,2.2,2.4l3.2,0.5l0.2,1.2L389.8,121.6z M417.2,61c-4.3,0.2-7.8,3.6-8,7.9v20.1c0,4.2,3.3,7.6,7.5,7.7
			c4.6,0,10.4-3.7,10.4-19.2C427.1,66.7,423.6,61,417.2,61L417.2,61z">
   </path>
   <path class="st0" d="M287.1,93.7V69.4c0-4.2-3.5-7.6-7.7-7.6c0,0-0.1,0-0.1,0c-4,0.1-7.2,3.3-7.3,7.3v24.5c0,1.2,0.8,2.2,2,2.4
			l3.3,0.5l0.2,1.2h-24.2l0.2-1.2l2.5-0.5c1.1-0.2,2-1.2,2-2.3V45.1c0-2.3-1.4-4.3-3.5-5.2l-2.2-0.9l19.8-6.4v29.7l0.4-0.7
			c0.1-0.1,5.6-8.3,15.5-8.3c3.4,0.1,6.7,1.5,9.1,3.8c2.3,2.4,3.7,6.6,3.7,11.2l0.1,25.3c0,1.2,0.8,2.2,2,2.4l3.3,0.5l0.2,1.2h-24.2
			l0.2-1.2l2.5-0.5C286.2,95.9,287,94.9,287.1,93.7">
   </path>
   <path class="st0" d="M119.7,36.8c0-1.3-1-2.3-2.2-2.4l-3.2-0.5l-0.2-1.2h27.5l-0.2,1.2l-3.2,0.5c-1.2,0.1-2.2,1.1-2.2,2.4V93
			c0,2.7,3.5,2.2,3.5,2.2c9.9,0,16.1-3.7,22.7-18.2l1.1-2.4h3.1l-2.8,23.1h-49.5l0.2-1.2l3.2-0.5c1.2-0.1,2.2-1.1,2.2-2.4V36.8z">
   </path>
   <path class="st0" d="M329.4,99.3c-7-0.1-12.6-5.8-12.6-12.8V60.9H307l6.1-6h2.1c0.9,0,1.6-0.7,1.6-1.6c0,0,0,0,0,0v-5.3l13-4.3
			v11.3h12.5l-5.7,6h-6.7V85c0,6.2,4.4,8.4,7.4,8.4c1.3,0,2.5-0.3,3.6-0.9l0.2-0.1l1.2,1.4C338.7,97,335.2,99.3,329.4,99.3z">
   </path>
   <path class="st0" d="M464.1,71.7l26.8,0.4c0.1-0.8,0.1-3.5,0.1-4.4c-0.3-6.8-5-14.4-17.3-14.4c-13.9,0-24.4,10.2-24.4,24
			c0,12.6,9.1,22,21.2,22c9.7,0,16.5-4.3,20.3-13.1l-1-0.9c-2.5,3.9-6.8,6.1-11.3,6c-8.7,0-14.3-7-14.4-17.9
			C464,72.9,464,72.3,464.1,71.7z M464.1,68.4c0.7-8.4,3.6-12.3,8.2-12.3c1.3,0,2.5,0.5,3.4,1.4c1.9,1.9,2.8,5,2.7,10.8v0.2
			l-14.3,0.1L464.1,68.4z">
   </path>
   <path class="st0" d="M512.6,71.7l26.8,0.4c0.1-0.8,0.1-3.5,0.1-4.4c-0.3-6.8-5-14.4-17.3-14.4c-13.9,0-24.4,10.2-24.4,24
			c0,12.6,9.1,22,21.2,22c9.7,0,16.5-4.3,20.3-13.1l-1-0.9c-2.5,3.9-6.8,6.2-11.4,6.1c-8.7,0-14.3-7-14.4-17.9
			C512.5,72.9,512.5,72.3,512.6,71.7z M512.6,68.4c0.7-8.4,3.6-12.3,8.2-12.3c1.3,0,2.5,0.5,3.4,1.4c1.9,1.9,2.8,5,2.7,10.8v0.2
			l-14.3,0.1L512.6,68.4z">
   </path>
   <path class="st0" d="M370.5,70.3c-5.9-2.3-10.4-4-10.4-8.4c0-4,2.8-6.3,6.8-6.3c2,0,3.9,0.5,5.6,1.6l7.5,10.9l2.6-0.1l-0.5-14.7
			l-4.8,1.6c-3.3-1-6.8-1.6-10.2-1.6c-10.6,0-17.7,5.6-17.7,14.4c0,8.1,6.1,11.1,13.6,14c5.5,2.2,10.6,3.7,10.6,9.3
			c0,3.2-3,6.3-7.9,6.3c-5.1,0-7.8-2.6-11.1-7.5l-2.7-5.7l-2.6,0.6l-0.9,11.5c5.5,2,11.3,3,17.1,3c13.2,0,19.2-7,19.2-14.7
			C384.6,76,377.3,73.1,370.5,70.3z">
   </path>
   <path class="st0" d="M233.9,89.5h-15.6c-1.9-0.1-3.4-1.7-3.5-3.7c-0.1-2.1,1.5-3.8,3.6-3.9c0,0,0.1,0,0.1,0c0.2,0,0.4,0,0.6,0
			c1.5,0.3,3,0.4,4.5,0.4c11.9,0,19.9-6.2,19.9-14.9c0-2.6-0.4-4.5-1.9-6.1l5.5-5l-1.3-3.8l-9.3,3.8c-3.8-1.9-7.9-2.9-12.1-2.9
			c-11.6,0-19.4,7.4-19.4,15.3c0,6.8,3.8,10.5,9.4,12.5v0.1c-5.8,1.7-11.1,5.6-11.1,10.9c0,4.7,4.7,8.9,10.5,9.6
			c-5.9,2.3-11.7,4.9-11.7,10.1c0,6.6,6.3,9.8,19,9.8c16.2,0,27.7-9,27.7-19.5C248.8,94.2,242.7,89.5,233.9,89.5z M219.7,58.9
			c0.9-1.7,2.6-2.8,4.5-2.8c3.7,0,6,3.2,6,12.1s-1.7,12-6,12c-3.6,0-5.7-3.6-5.7-12.1C218.5,63.9,218.8,60.8,219.7,58.9z
			 M222.4,118.3c-6.2,0-9.8-3.6-9.8-8.9c0-4,4.4-7.5,8.3-7.5h8.4c7,0.5,10.3,2,10.3,7C239.5,114.4,230.3,118.3,222.4,118.3
			L222.4,118.3z">
   </path>
   <polygon class="st0" points="65.2,65.2 32.6,65.2 32.6,32.6 0,0 0,32.6 0,65.2 0,97.8 32.6,97.8 65.2,97.8 97.8,97.8 		">
   </polygon>
  </g>
 </g>
</svg>