<svg version="1.1" id="Layer_1" xmlns:x="ns_extend;" xmlns:i="ns_ai;" xmlns:graph="ns_graphs;" xmlns="http://www.w3.org/2000/svg" xmlns:xlink="http://www.w3.org/1999/xlink" x="0px" y="0px" viewBox="0 0 277.4 102" style="enable-background:new 0 0 277.4 102;" xml:space="preserve">
 <style type="text/css">
  .st0{fill:#FFFFFF;}
 </style>
 <metadata>
  <sfw xmlns="ns_sfw;">
   <slices>
   </slices>
   <sliceSourceBounds bottomLeftOrigin="true" height="102" width="277.4" x="61.6" y="-251.2">
   </sliceSourceBounds>
  </sfw>
 </metadata>
 <g>
  <path class="st0" d="M277.4,101.7h-45.6l-15.9-33.9h-31.4l2.2-5.8h26.6l-16.9-36.2L207.2,0h15.1l34.5,73.3
		C261.6,83.6,267.8,97.8,277.4,101.7L277.4,101.7z M138.9,97.8V53.3c0,0,11.4,3.4,22.8,20.2V28.3c-11.4,17-22.8,19.4-22.8,19.4V3.9
		c24.6,0,36.4,11.9,42.5,22.6L192.7,0h-104C98.2,6.7,105,12.4,105,35.7v66h87.7l-11.7-24.6C174.4,87.5,161.7,97.8,138.9,97.8
		L138.9,97.8z M0,0c7.1,4.1,17.1,10.7,17.1,31.4v40C17.1,93.6,1,101.7,1,101.7h37.3c0,0-16.1-8-16.1-30.3V20.1L96.9,102V50.6L50.7,0
		L0,0L0,0z M246.3,11.3h-2.1V3.8h2.9c1.4-0.3,2.7,0.6,3,2c0,0.1,0,0.3,0,0.4c0,0.9-0.5,1.7-1.4,2l1.8,3.1h-2.1l-1.6-2.7h-0.5
		L246.3,11.3L246.3,11.3z M246.3,7.2h0.7c0.5,0.1,1-0.2,1.1-0.7c0-0.1,0-0.1,0-0.2c0-0.5-0.4-0.9-0.9-0.9c-0.1,0-0.1,0-0.2,0h-0.7
		L246.3,7.2L246.3,7.2z M239.2,7.7c0-4.2,3.4-7.7,7.6-7.7c0.1,0,0.1,0,0.2,0c4.2,0.1,7.5,3.6,7.5,7.8c-0.1,4.2-3.6,7.6-7.8,7.5
		C242.6,15.2,239.2,11.8,239.2,7.7L239.2,7.7z M240.7,7.7c0,3.5,2.8,6.4,6.3,6.4c3.5,0,6.3-2.9,6.3-6.4s-2.8-6.4-6.3-6.4
		C243.6,1.3,240.7,4.1,240.7,7.7L240.7,7.7z">
  </path>
 </g>
</svg>