<svg width="201" height="123" viewBox="0 0 201 123" fill="none" xmlns="http://www.w3.org/2000/svg">
<g clip-path="url(#clip0_447_250)">
<path d="M53.2 23V32.7H62.6V80.5L20.5 23H0V32.7H9.3V90.3H0V100H30.6V90.3H21.2V43.2L63.1 100H74.5V32.7H84V23H53.2Z" fill="white"/>
<path d="M169 23V32.1H177.4L162.3 52.5L147 32.1H155.3V23H124.7V32.7H133.4L155.2 60.7L132 90.3H123V100H154V90.8H145.6L162.3 68.7L179.2 90.8H170.1V100H201V90.3H192.3L169.3 60.7L191.3 32.7H199.8V23H169Z" fill="white"/>
<path d="M122 8.6C124.4 8.6 126.5 9.3 127.5 9.8C128.7 7.2 129.9 4.4 131 1.8C129.3 0.9 125.3 0 121.5 0C109.3 0 101.6 7.6 99.9 20.3L95.1 56.5H86.3L83.2 66.4H92.5H93.8L88.9 103.5C88 110.6 84.2 114.4 78 114.4C75.7 114.4 73.7 113.9 72.3 113.3C71.2 115.9 70.2 118.7 69 121.4C70.9 122.3 75.2 122.9 78.2 122.9C90 122.9 98.2 115.8 99.9 102.6L104.7 66.4H113.6L116.7 56.5H106.2L111.1 19.4C112 12.5 115.7 8.6 122 8.6Z" fill="white"/>
</g>
<defs>
<clipPath id="clip0_447_250">
<rect width="201" height="123" fill="white"/>
</clipPath>
</defs>
</svg>
