<svg width="680" height="67" viewBox="0 0 680 67" fill="none" xmlns="http://www.w3.org/2000/svg">
<g clip-path="url(#clip0_447_322)">
<path d="M36.6916 12.6456V48.1556C36.4238 52.0416 37.2272 55.9276 38.9681 59.4116C40.9768 61.8236 43.9228 63.1636 47.1367 63.1636C48.2079 63.2976 48.8775 63.8336 48.8775 64.9056C48.8775 65.5756 48.3419 65.9776 47.4045 65.9776C47.1367 65.9776 46.7349 65.9776 46.1993 65.9776L42.5837 65.7096L36.6916 65.3076C36.156 65.3076 35.6203 65.3076 34.8169 65.3076C32.9421 65.3076 31.3352 65.3076 29.8621 65.4416L19.4171 66.1116C18.3458 66.2456 17.5423 66.2456 17.1406 66.2456C16.2032 66.2456 15.6676 65.8436 15.6676 65.0396C15.6676 64.5036 15.8015 64.1016 16.2032 63.6996C16.7389 63.4316 17.4084 63.2976 18.078 63.2976C20.2206 63.2976 22.3631 62.3596 23.7022 60.6176C25.1753 58.7416 25.8448 56.3296 25.7109 54.0516V51.7736V9.83158C25.7109 7.41958 24.3718 6.07958 21.6936 6.07958C17.4084 5.81158 12.9894 6.34758 8.83812 7.41958C7.49901 7.82158 6.42773 8.62558 5.49035 9.69758C4.55297 11.7076 3.74951 13.9856 3.21386 16.1296L2.81213 17.4696C2.4104 18.8096 1.87475 19.3456 1.2052 19.3456C0.133911 19.3456 -0.267822 18.8096 -0.267822 17.8716C-0.133911 16.6656 -3.29795e-07 15.4596 0.267822 14.2536L0.669554 10.0996L1.2052 5.94558L1.47302 3.13158C1.47302 2.19358 2.27649 1.25558 3.21386 1.25558C3.34777 1.25558 3.34777 1.25558 3.48168 1.25558C3.74951 1.25558 4.28515 1.25558 5.08862 1.38958C6.69555 1.65758 8.43639 1.65758 10.579 1.65758L20.2206 1.79158L31.603 1.92558C38.9681 1.92558 46.7349 1.65758 55.0374 1.25558C56.6443 1.25558 57.7156 1.12158 58.2513 1.12158C59.9921 1.12158 60.9295 1.79158 60.9295 3.26558L61.1973 6.74958C61.1973 7.28558 61.3312 8.62558 61.733 10.5016C61.8669 11.8416 62.0008 13.1816 62.0008 14.5216C62.0008 15.5936 61.599 16.1296 60.6617 16.1296C59.9921 16.1296 59.4565 15.5936 59.1886 14.3876C58.7869 11.8416 57.4478 9.56358 55.4391 8.08958C53.0287 6.61558 50.2166 5.94558 47.2706 6.07958C44.1906 5.81158 41.2446 6.21358 38.2985 7.15158C37.2272 7.95558 36.6916 9.69758 36.6916 12.6456Z" fill="white"/>
<path d="M84.3639 51.1033L84.7656 55.7933C85.0334 57.9373 85.9708 59.8133 87.5777 61.2873C89.1847 62.6273 91.1933 63.2973 93.3359 63.1633C94.8089 63.1633 95.6124 63.6993 95.6124 64.6373C95.6124 65.5753 94.5411 65.9773 92.5324 65.9773C91.5951 65.9773 90.3899 65.8433 88.7829 65.7093C85.4352 65.3073 82.2213 65.0393 78.8735 65.0393C76.3292 65.0393 73.9188 65.1733 71.3745 65.5753C70.3032 65.8433 69.098 65.9773 68.0267 65.9773C67.3572 65.9773 66.8215 65.5753 66.6876 64.9053L66.5537 64.5033L67.8928 63.4313C69.6337 62.8953 71.2406 61.9573 72.4458 60.4833C73.2493 58.6073 73.651 56.5973 73.5171 54.5873V50.4333V12.9133C73.651 10.7693 73.1153 8.62531 72.0441 6.74931C70.571 5.27531 68.5624 4.47131 66.5537 4.33731C65.4824 4.20331 64.4111 3.93531 63.4738 3.66731C63.072 3.39931 62.8042 2.99731 62.8042 2.4613C62.8042 1.5233 63.2059 1.1213 63.8755 1.1213C64.679 1.2553 65.6163 1.2553 66.4198 1.5233C68.2945 1.7913 70.1693 1.9253 72.0441 1.9253C73.7849 1.9253 75.9275 1.79131 78.6057 1.6573L82.0874 1.3893C85.3012 1.1213 87.8456 0.987305 89.4525 0.987305C90.5238 0.987305 91.0594 1.3893 91.0594 2.19331C91.0594 2.59531 91.0594 2.99731 90.7916 3.39931C90.3899 3.66731 89.9881 3.80131 89.5864 3.80131C87.9795 3.93531 86.3725 4.60531 85.3012 5.67731C84.4978 7.28531 84.23 9.16131 84.3639 11.0373V51.1033Z" fill="white"/>
<path d="M131.634 0.183423C138.062 0.451423 144.222 2.05942 149.98 4.73942C151.052 5.27542 152.257 5.67742 153.462 5.81142C153.864 5.81142 154.265 5.67742 154.667 5.27542L155.203 4.73942C155.471 4.47142 155.872 4.20342 156.274 4.20342C157.211 4.20342 157.613 4.73942 157.613 5.94542V9.29542L157.479 15.7274L157.613 19.0774C157.747 19.8814 157.747 20.8194 157.881 21.7574C157.881 22.1594 157.881 22.4274 157.881 22.5614C157.881 23.6334 157.345 24.0354 156.408 24.0354C155.738 24.0354 155.337 23.3654 155.069 22.0254C154.265 17.8714 152.123 13.9854 149.043 11.0374C144.758 6.07942 138.464 3.39942 131.902 3.39942C125.876 3.26542 120.118 6.07942 116.503 10.9034C112.351 16.7994 110.343 23.9014 110.744 31.0034C110.477 38.9094 112.485 46.8154 116.636 53.6494C120.654 59.8134 125.475 62.8954 131.233 62.8954C133.509 62.7614 135.652 62.3594 137.794 61.6894C139.937 61.1534 141.946 60.3494 143.82 59.1434C145.026 58.3394 145.963 56.9994 146.365 55.5254C146.9 53.1134 147.168 50.7014 147.034 48.2894C147.302 45.4754 146.633 42.7954 145.026 40.5174C142.883 38.7754 140.205 37.8374 137.393 38.1054C136.455 38.1054 135.92 37.5694 135.92 36.7654C135.92 35.9614 136.455 35.4254 137.66 35.4254C138.062 35.4254 138.598 35.4254 139.267 35.5594C142.347 35.8274 145.829 35.9614 149.712 35.9614C152.658 35.9614 155.605 35.9614 158.551 35.6934C159.756 35.5594 160.961 35.4254 162.032 35.4254C163.104 35.4254 163.773 35.8274 163.773 36.6314C163.773 37.4354 163.237 37.8374 162.032 38.1054C160.425 38.3734 158.952 39.4454 158.283 41.0534C157.479 43.5994 157.078 46.2794 157.211 48.9594C157.211 50.0314 157.211 50.9694 157.345 52.0414C157.479 53.6494 157.479 54.7214 157.479 55.2574C157.479 56.0614 157.345 56.7314 156.944 57.4014C156.274 58.0714 155.471 58.4734 154.533 58.7414C153.864 59.0094 151.319 60.0814 147.034 61.9574C140.874 64.9054 134.179 66.5134 127.483 66.7814C119.582 67.0494 112.083 63.9674 106.727 58.2054C101.772 52.3094 98.9602 44.2694 99.228 36.0954C98.9602 26.7154 102.308 17.4694 108.602 10.5014C114.36 3.80142 122.796 -0.0845768 131.634 0.183423Z" fill="white"/>
<path d="M189.082 12.1096V22.2936C188.948 24.1696 189.216 26.0456 189.752 27.7876C190.154 28.5916 191.225 28.9936 192.832 28.9936H194.305H196.314H200.331C203.545 28.8596 206.357 26.8496 207.562 23.9016L208.633 21.6236C208.901 21.0876 209.437 20.6856 210.106 20.6856C210.776 20.6856 211.178 21.0876 211.178 22.0256C211.178 22.2936 211.178 22.9636 211.044 24.0356C210.91 24.8396 210.91 25.5096 210.91 26.1796C210.91 27.2516 211.044 29.5296 211.312 33.2816C211.445 35.6936 211.579 37.8376 211.579 39.5796V41.9916C211.579 42.2596 211.579 42.6616 211.445 42.9296C211.312 43.1976 211.044 43.3316 210.642 43.1976C209.839 43.3316 209.303 42.6616 209.169 41.4556C208.901 39.1776 207.964 37.0336 206.357 35.4256C205.553 34.6216 204.482 34.0856 203.411 33.9516C201.268 33.6836 198.992 33.5496 196.849 33.6836H193.635C192.564 33.5496 191.493 33.8176 190.555 34.3536C189.886 35.1576 189.484 36.0956 189.484 37.0336C189.216 39.4456 189.216 41.9916 189.216 44.5376V48.6916C189.082 51.9076 189.484 55.1236 190.288 58.2056C190.823 60.6176 193.1 62.2256 195.51 61.8236C208.232 61.8236 216.534 57.9376 220.551 50.1656C220.819 49.7636 220.953 49.6296 221.087 49.4956C221.355 49.4956 221.757 49.4956 222.024 49.7636C222.292 50.0316 222.426 50.4336 222.426 50.8356C222.426 54.0516 221.489 57.1336 219.882 59.8136C218.677 62.0916 216.936 63.8336 214.659 65.0396C212.115 66.2456 209.303 66.7816 206.491 66.6476C204.214 66.6476 202.072 66.5136 199.795 66.2456L194.171 65.7096C192.162 65.5756 189.484 65.4416 186.002 65.4416C183.726 65.4416 180.244 65.5756 175.557 65.8436C174.218 65.9776 173.415 65.9776 172.745 65.9776C172.21 66.1116 171.674 65.7096 171.54 65.0396V64.9056C171.54 64.3696 171.808 63.8336 172.611 63.5656C173.95 63.1636 175.29 62.3596 176.227 61.4216C177.03 60.2156 177.566 58.7416 177.7 57.2676C178.102 54.9896 178.236 52.7116 178.236 50.4336V13.3156C178.503 10.7696 177.834 8.22358 176.495 6.21358C174.486 4.60558 171.942 3.66758 169.397 3.53358C168.728 3.53358 168.058 2.86358 168.058 2.19358C168.058 1.52358 168.594 1.12158 169.665 1.12158C169.933 1.12158 170.335 1.12158 171.138 1.25558C171.674 1.25558 172.477 1.25558 173.415 1.25558L178.102 1.38958L195.912 1.52358C206.223 1.52358 212.517 1.38958 214.927 1.12158C215.195 1.12158 215.463 1.12158 215.597 1.12158C216.534 1.12158 216.936 1.65758 216.936 2.72958C216.936 3.39958 217.07 4.73958 217.204 6.61558C217.471 9.29558 217.605 11.3056 217.605 12.5116C217.605 14.9236 216.936 16.1296 215.731 16.1296C215.195 16.1296 214.793 15.4596 214.793 13.9856C215.061 11.3056 213.722 8.62558 211.312 7.15158C207.83 5.54358 204.08 4.73958 200.331 5.00758H194.573L191.493 5.40958C189.886 5.94558 189.082 7.55358 189.082 10.0996V12.1096Z" fill="white"/>
<path d="M245.86 47.3514C245.593 51.5054 246.128 55.5254 247.467 59.4114C248.806 61.6894 251.351 63.0294 254.029 63.0294C255.368 63.1634 256.038 63.6994 256.038 64.5034C256.038 65.4414 255.502 65.8434 254.431 65.8434C254.029 65.8434 253.493 65.8434 252.556 65.7094C249.878 65.4414 247.2 65.4414 244.789 65.4414C242.647 65.4414 240.772 65.4414 239.165 65.5754L235.281 65.9774L232.068 66.2454C231.13 66.3794 230.595 66.3794 230.193 66.3794C229.122 66.3794 228.452 65.9774 228.452 65.0394C228.452 64.3694 228.854 63.8334 229.389 63.6994C231.13 63.2974 232.603 62.3594 233.808 61.0194C234.746 59.5454 235.148 57.6694 235.014 55.9274V51.5054V49.6294V15.7274C235.281 13.1814 234.746 10.5014 233.541 8.22343C231.666 5.94543 228.988 4.60543 226.042 4.47143C224.702 4.33743 224.167 3.66743 224.167 2.86343C224.033 2.19343 224.569 1.65743 225.104 1.52343C225.238 1.52343 225.372 1.52343 225.372 1.52343C225.908 1.52343 226.443 1.52343 227.113 1.65743C229.791 1.92543 232.469 2.05943 235.014 2.05943C238.227 2.05943 241.977 1.92543 246.53 1.52343C251.886 1.12143 255.502 0.853434 257.511 0.853434C262.867 0.719434 268.09 2.32743 272.375 5.67743C276.124 8.62543 278.267 13.1814 278.267 18.0054C278.267 21.0874 277.329 24.0354 275.589 26.4474C273.848 28.9934 271.303 31.0034 268.357 32.2094C267.688 32.4774 267.42 32.7454 267.42 33.1474C267.42 33.5494 267.688 33.9514 267.956 34.2194C268.224 34.6214 268.625 35.4254 269.161 36.3634L273.312 43.7334L278.133 52.3094C279.338 54.5874 280.811 56.5974 282.552 58.3394C283.757 59.4114 285.498 60.0814 287.105 60.0814C287.775 60.0814 288.444 60.0814 289.114 59.9474C289.515 59.8134 289.783 59.8134 290.185 59.8134C290.721 59.8134 290.988 60.2154 290.988 60.8854C290.988 61.8234 289.649 62.8954 287.105 63.9674C284.962 65.0394 282.686 65.5754 280.276 65.7094C276.794 65.5754 273.446 63.8334 271.303 61.0194C267.152 55.3914 263.537 49.3614 260.725 43.0634C259.787 40.6514 258.314 38.3734 256.573 36.4974C254.966 35.4254 253.092 34.8894 251.217 35.1574H248.271L246.128 35.5594C245.726 35.8274 245.459 36.6314 245.459 37.8374L245.86 47.3514ZM245.86 10.6354V26.8494C245.726 28.1894 245.994 29.5294 246.664 30.6014C247.735 31.2714 249.074 31.5394 250.413 31.4054C253.895 31.5394 257.377 31.4054 260.858 31.1374C262.331 30.8694 263.537 30.1994 264.608 29.2614C267.018 27.1174 268.224 23.9014 268.09 20.6854C268.357 11.9754 261.528 4.60543 252.69 4.33743C252.288 4.33743 252.02 4.33743 251.619 4.33743C250.012 4.20343 248.405 4.60543 247.2 5.67743C246.128 7.15143 245.593 8.89343 245.86 10.6354Z" fill="white"/>
<path d="M328.751 0.133842C335.179 0.401842 341.339 2.00984 347.097 4.68984C348.169 5.22584 349.374 5.62784 350.579 5.76184C350.981 5.76184 351.382 5.62784 351.784 5.22584L352.32 4.68984C352.588 4.42184 352.989 4.15384 353.391 4.15384C354.328 4.15384 354.73 4.68984 354.73 5.89584V9.24584L354.596 15.6778L354.73 19.0278C354.73 19.8318 354.864 20.7698 354.998 21.7078C354.998 22.1098 354.998 22.3778 354.998 22.5118C354.998 23.5838 354.462 23.9858 353.525 23.9858C352.855 23.9858 352.454 23.3158 352.186 21.9758C351.382 17.8218 349.24 13.9358 346.16 10.9878C341.875 6.02984 335.581 3.34984 329.019 3.34984C322.993 3.21584 317.235 6.02984 313.62 10.8538C309.468 16.7498 307.46 23.8518 307.861 30.9538C307.594 38.8598 309.602 46.7659 313.753 53.5999C317.771 59.7639 322.592 62.8459 328.35 62.8459C330.626 62.7119 332.769 62.3099 334.911 61.6399C337.054 61.1039 339.063 60.2999 340.937 59.0939C342.143 58.2899 343.08 56.9499 343.482 55.4759C344.017 53.0639 344.285 50.6519 344.151 48.2399C344.419 45.4259 343.75 42.7459 342.143 40.4679C340 38.7259 337.322 37.7878 334.51 38.0558C333.572 38.0558 333.037 37.5198 333.037 36.7158C333.037 35.9118 333.572 35.3758 334.777 35.3758C335.179 35.3758 335.715 35.3758 336.384 35.5098C339.464 35.7778 342.946 35.9118 346.829 35.9118C349.776 35.9118 352.722 35.9118 355.668 35.6438C356.873 35.5098 358.078 35.3758 359.149 35.3758C360.354 35.3758 360.89 35.7778 360.89 36.5818C360.89 37.3858 360.354 37.7878 359.149 38.0558C357.542 38.3238 356.069 39.3958 355.4 41.0039C354.596 43.5499 354.195 46.2299 354.328 48.9099C354.328 49.9819 354.329 50.9199 354.462 51.9919C354.596 53.5999 354.596 54.6719 354.596 55.2079C354.596 56.0119 354.462 56.6819 354.061 57.3519C353.391 58.0219 352.588 58.4239 351.65 58.6919C350.981 58.9599 348.436 60.0319 344.151 61.9079C337.991 64.8559 331.296 66.4639 324.466 66.7319C316.566 66.9999 309.067 63.9179 303.71 58.1559C298.22 52.1259 295.274 44.0858 295.675 35.9118C295.408 26.5318 298.755 17.2858 305.049 10.3178C311.343 3.75184 319.913 -0.000157903 328.751 0.133842Z" fill="white"/>
<path d="M386.199 50.9197C386.199 56.8157 386.869 60.0317 388.342 60.8357C389.815 61.3717 391.422 61.5057 392.895 61.5057C403.474 61.5057 411.107 58.4237 415.526 52.1257C416.865 50.2497 417.802 49.3117 418.07 49.3117C418.606 49.3117 418.874 49.9817 418.874 51.1877C418.874 55.0737 417.535 58.9597 414.99 61.9077C412.714 64.7217 409.232 66.1957 405.616 66.0617C404.813 66.0617 403.34 65.9277 401.197 65.7937L395.573 65.5257L390.484 65.2577C388.744 65.1237 386.735 65.1237 384.592 65.1237C380.709 65.1237 376.692 65.3917 372.808 65.7937C371.469 65.9277 370.666 66.0617 370.264 66.0617C369.327 66.0617 368.925 65.6597 368.925 64.8557C368.925 64.3197 369.327 63.9177 370.13 63.6497C372.005 63.2477 373.478 62.0417 374.281 60.4337C375.219 57.8877 375.62 55.2077 375.486 52.5277V12.9977C375.486 8.03971 373.344 5.09171 369.193 4.42171L366.247 4.01971C365.041 3.88571 364.506 3.34971 364.506 2.54571C364.372 1.87571 364.907 1.20571 365.577 1.07171C365.711 1.07171 365.845 1.07171 365.979 1.07171C366.38 1.07171 366.916 1.07171 367.318 1.20571C367.72 1.20571 368.389 1.33971 369.193 1.33971L371.201 1.47371C373.076 1.60771 374.549 1.74171 375.486 1.74171C377.897 1.60771 380.307 1.47371 382.718 1.20571C385.262 0.937711 387.672 0.803711 390.217 0.803711C392.091 0.803711 393.029 1.20571 393.029 2.14371C393.029 2.94771 392.359 3.34971 391.02 3.34971C387.806 3.61771 386.199 5.76171 386.199 9.91571V50.9197Z" fill="white"/>
<path d="M457.44 -0.000238051C466.144 -0.402238 474.714 2.67976 481.142 8.57576C487.168 14.4718 490.516 22.6458 490.114 31.0878C490.382 40.4678 487.034 49.7138 480.74 56.6818C474.714 63.5158 466.412 66.9998 455.699 66.9998C446.727 67.4018 437.889 64.1858 431.327 58.0218C425.033 51.7238 421.82 43.0138 422.221 34.1698C422.221 29.8818 423.025 25.4598 424.498 21.4398C427.444 12.8638 434.005 6.16376 442.308 2.94776C447.263 0.937762 452.351 -0.000238051 457.44 -0.000238051ZM453.958 3.61776C448.2 3.34976 442.71 6.02976 439.228 10.5858C435.612 15.2758 433.872 21.8418 433.872 30.1498C433.47 38.7258 435.88 47.0338 440.567 54.1358C444.451 60.0318 450.878 63.5158 457.976 63.3818C464.135 63.5158 469.894 60.7018 473.375 55.7438C477.527 49.7138 479.535 42.6118 479.134 35.2418C479.134 30.2838 478.196 25.4598 476.455 20.7698C474.982 16.4818 472.572 12.7298 469.358 9.51376C465.207 5.76176 459.716 3.48376 453.958 3.61776Z" fill="white"/>
<path d="M505.112 14.8738C505.112 8.5758 502.568 5.0918 497.345 4.4218L495.203 4.1538C494.533 4.1538 494.131 3.6178 494.131 2.8138C494.131 1.8758 494.533 1.3398 495.47 1.3398H496.676L500.157 1.4738C503.103 1.6078 504.978 1.6078 505.782 1.6078C508.058 1.6078 512.209 1.3398 518.101 0.803801C521.851 0.535801 524.931 0.267801 527.475 0.267801C533.099 -0.000199308 538.724 1.4738 543.544 4.5558C547.428 7.1018 549.704 11.3898 549.57 16.0798C549.838 21.1718 546.758 25.8618 542.071 27.6038C540.866 28.1398 540.331 28.5418 540.331 28.9438C540.331 29.4798 540.866 29.8818 542.205 30.0158C545.821 30.5518 549.169 32.4278 551.445 35.1078C553.722 38.0558 554.927 41.6738 554.793 45.2918C555.061 50.9198 552.784 56.2798 548.499 60.0318C543.678 63.7838 537.786 65.7938 531.626 65.3918L522.119 65.1238L514.754 64.9898C510.602 64.9898 506.585 65.1238 502.568 65.5258C501.63 65.6598 500.559 65.6598 499.622 65.6598C498.684 65.6598 498.149 65.2578 498.149 64.4538C498.149 63.7838 498.55 63.2478 499.354 63.1138C503.103 62.4438 504.978 59.2278 504.978 53.3318L505.112 14.8738ZM515.959 10.8538V24.3878C515.825 25.8618 516.227 27.2018 517.298 28.2738C518.637 29.0778 520.244 29.4798 521.851 29.3458L528.413 29.4798L531.359 29.3458C536.715 28.6758 539.393 25.4598 539.393 19.6978C539.527 15.4098 537.92 11.3898 534.974 8.4418C531.626 5.3598 527.475 3.8858 523.056 4.0198C521.047 3.7518 519.039 4.2878 517.298 5.3598C516.227 6.9678 515.691 8.8438 515.959 10.8538ZM515.959 42.2098V49.9818L516.093 51.7238L516.361 55.7438C516.762 60.2998 520.378 62.5778 527.073 62.5778C533.769 62.5778 538.322 60.9698 540.732 57.7538C542.741 54.9398 543.812 51.5898 543.678 48.1058C543.678 40.7358 540.331 36.1798 533.769 34.4378C529.484 33.3658 525.199 32.9638 520.914 32.9638C518.637 32.9638 517.164 33.4998 516.628 34.5718C516.093 36.9838 515.691 39.6638 515.959 42.2098Z" fill="white"/>
<path d="M594.565 6.56593L615.991 55.7439C616.794 57.8879 618.133 59.7639 619.74 61.2379C621.347 62.5779 623.356 63.3819 625.365 63.6499C625.9 63.7839 626.168 64.1859 626.168 64.9899C626.168 65.7939 625.766 66.33 625.097 66.196C624.561 66.196 623.892 66.0619 623.356 65.9279C619.472 65.2579 615.589 64.9899 611.706 65.1239C607.956 64.9899 604.341 65.2579 600.725 65.9279C600.323 66.0619 599.921 66.062 599.52 66.196C598.85 66.33 598.315 65.7939 598.181 65.1239C598.181 64.9899 598.181 64.8559 598.181 64.8559C598.181 64.4539 598.582 64.0519 599.252 63.7839C600.725 63.3819 601.93 62.5779 603.001 61.3719C603.939 60.4339 604.474 59.0939 604.474 57.7539C603.671 53.7339 602.332 49.8479 600.457 46.0959C599.654 44.2199 598.716 43.2819 597.645 43.0139C594.029 42.6119 590.414 42.4779 586.798 42.6119H580.37L576.219 43.4159C575.014 43.9519 573.809 45.9619 572.202 49.5799L570.729 53.1979C570.327 54.1359 570.059 55.2079 570.059 56.2799C570.059 60.1659 572.871 62.5779 578.362 63.1139C579.567 63.2479 580.103 63.7839 580.103 64.4539C580.103 65.2579 579.433 65.6599 578.362 65.6599C577.558 65.6599 576.755 65.5259 575.951 65.3919C574.077 64.9899 572.202 64.8559 570.327 64.7219C568.854 64.7219 566.444 64.8559 563.096 65.2579C560.686 65.5259 559.079 65.6599 558.543 65.6599C557.606 65.6599 557.204 65.2579 557.204 64.4539C557.204 63.7839 557.606 63.3819 558.543 62.9799C560.15 62.4439 561.623 61.5059 562.56 60.0319C564.301 57.2179 565.908 54.1359 567.113 51.0539L579.969 21.4399C581.04 19.0279 581.71 17.4199 582.111 16.6159L586.53 7.63793L588.807 3.21593V3.34993C589.878 0.937934 590.548 -0.268066 590.816 -0.268066C591.351 -0.268066 592.155 1.07193 593.36 3.61793L594.565 6.56593ZM596.306 36.0459L590.146 21.7079C588.673 18.2239 587.602 16.6159 587.066 16.6159C586.664 16.6159 585.995 17.6879 585.057 19.9659L584.12 21.9759L578.63 34.5719L578.094 35.7779C577.826 36.1799 577.826 36.5819 577.692 36.9839C577.692 38.0559 578.764 38.5919 581.04 38.5919H594.967C596.172 38.5919 596.708 38.3239 596.708 37.6539C596.708 37.3859 596.574 37.1179 596.44 36.8499L596.306 36.0459Z" fill="white"/>
<path d="M647.326 50.9197C647.326 56.8157 647.995 60.0317 649.468 60.8357C650.941 61.3717 652.548 61.5057 654.021 61.5057C664.6 61.5057 672.233 58.4237 676.652 52.1257C677.991 50.2497 678.929 49.3117 679.196 49.3117C679.732 49.3117 680 49.9817 680 51.1877C680 55.0737 678.661 58.9597 676.116 61.9077C673.84 64.7217 670.358 66.1957 666.743 66.0617C665.939 66.0617 664.466 65.9277 662.324 65.7937L656.699 65.5257L651.611 65.2577C649.87 65.1237 647.861 65.1237 645.719 65.1237C641.835 65.1237 637.818 65.3917 633.934 65.7937C632.595 65.9277 631.792 66.0617 631.39 66.0617C630.453 66.0617 630.051 65.6597 630.051 64.8557C630.051 64.3197 630.453 63.9177 631.256 63.6497C632.997 63.2477 634.604 62.0417 635.407 60.4337C636.345 57.8877 636.747 55.2077 636.613 52.5277V12.9977C636.613 8.03971 634.47 5.09171 630.319 4.42171L627.373 4.01971C626.168 3.88571 625.632 3.34971 625.632 2.54571C625.498 1.87571 626.034 1.20571 626.703 1.07171C626.837 1.07171 626.971 1.07171 627.105 1.07171C627.507 1.07171 628.042 1.07171 628.444 1.20571C628.846 1.20571 629.515 1.33971 630.319 1.33971L632.328 1.47371C634.202 1.60771 635.675 1.74171 636.613 1.74171C638.086 1.74171 640.496 1.60771 643.844 1.20571C646.388 0.937711 648.799 0.803711 651.343 0.803711C653.218 0.803711 654.155 1.20571 654.155 2.14371C654.155 2.94771 653.485 3.34971 652.146 3.34971C648.932 3.61771 647.459 5.76171 647.459 9.91571L647.326 50.9197Z" fill="white"/>
</g>
<defs>
<clipPath id="clip0_447_322">
<rect width="680" height="67" fill="white"/>
</clipPath>
</defs>
</svg>
