<svg width="592" height="152" viewBox="0 0 592 152" fill="none" xmlns="http://www.w3.org/2000/svg">
<path d="M37.0146 13.9385H161.137V138.061H37.0146V13.9385Z" fill="white"/>
<path d="M94.942 84.2733L73.4326 44.1406H83.3634L95.7757 69.3796C95.7757 69.794 96.1901 70.2084 96.6045 70.6228C97.0189 71.0372 97.0189 71.4516 97.4333 72.2754L97.8477 72.6898V73.1042C98.2621 73.933 98.2621 74.3474 98.6765 75.1762C99.0909 75.5906 99.0909 76.4194 99.5053 76.8289C99.9197 75.5857 100.748 74.7569 101.158 73.1042C101.572 71.861 102.401 70.6228 103.23 69.3796L115.642 44.1406H124.744L103.235 84.6926V110.346H94.9617L94.942 84.2733Z" fill="black"/>
<path d="M210.826 57.574C216.055 57.574 220.594 58.9701 224.087 61.7673L220.599 65.9607C217.456 63.8689 214.319 62.4728 210.486 62.4728C204.551 62.4728 200.017 65.6153 197.575 71.5501C196.179 75.038 195.483 79.5767 195.483 85.5115C195.483 90.0501 196.174 93.8883 197.23 96.6805C200.022 103.311 204.561 106.449 211.536 106.449C215.374 106.449 218.867 105.403 222.005 102.961L225.493 107.499C220.954 110.292 216.119 111.693 210.841 111.693C204.561 111.693 199.326 109.251 195.138 104.016C190.945 99.0831 189.203 92.502 189.203 84.4804C189.203 76.4588 191.295 70.1737 195.483 64.9444C199.321 60.4057 204.561 57.6135 210.841 57.6135L210.826 57.574ZM230.717 92.1221C230.717 85.842 232.113 80.9531 235.256 77.4701C238.398 73.9872 242.236 71.8856 247.12 71.8856C252.705 71.8856 257.234 73.9773 260.381 78.516C262.823 82.0039 263.869 86.8928 263.869 92.8227C263.869 99.8033 261.777 105.388 257.934 108.876C255.045 111.414 251.312 112.783 247.466 112.714C242.236 112.714 238.388 110.967 235.251 107.129C232.108 103.641 230.717 98.4072 230.717 92.1221ZM255.147 82.0088C253.401 78.8663 250.954 77.0755 247.12 77.0755C243.287 77.0755 240.84 78.4716 239.094 81.2688C237.698 83.3605 237.348 86.8533 237.348 91.3821C237.348 97.3169 238.038 101.495 239.79 103.947C241.541 106.399 243.983 107.785 247.466 107.785C251.659 107.785 254.446 105.694 255.843 101.851C256.533 99.7589 256.888 96.9173 256.888 93.4739C257.234 88.2445 256.543 84.3965 255.142 81.9595L255.147 82.0088ZM275.028 82.6995C275.028 78.8613 274.683 75.7188 273.632 73.3261L279.567 71.93C280.613 73.6764 280.963 75.7681 280.963 77.5145V77.8599C282.359 76.4637 283.755 75.0676 285.896 74.0217C288.338 72.6256 290.435 71.93 292.527 71.93C295.669 71.93 298.462 73.3261 300.203 75.7681C300.548 76.4588 301.249 77.5145 301.599 78.2101C305.793 74.0168 309.626 71.93 313.814 71.93C316.606 71.93 319.044 72.9759 320.795 74.7223C322.541 76.814 323.587 79.2609 323.587 82.0532V111.012H317.213V82.3985C317.213 78.5604 315.467 76.814 312.28 76.814C310.534 76.814 308.442 77.5047 306.695 78.9057C306.005 79.5964 304.604 80.6521 302.857 82.0483L302.167 82.7389V111.007H295.536V83.7453C295.536 81.3033 295.191 79.552 294.49 78.812C293.444 77.7661 292.399 77.4159 290.652 77.4159C287.86 77.4159 284.717 79.1623 280.884 82.6452V111.259H275.033L275.028 82.6995ZM334.362 56.1779L340.642 54.7817C341.332 57.574 341.688 60.7165 341.688 64.5497V77.4603C345.175 73.9724 349.019 72.2309 352.857 72.2309C357.395 72.2309 361.233 73.9773 363.675 77.4603C366.468 80.9481 367.869 85.8371 367.869 91.7669C367.869 98.0471 366.473 102.936 363.675 106.774C360.878 110.612 357.045 112.359 352.506 112.359C350.442 112.397 348.402 111.917 346.572 110.963C344.48 109.917 343.084 108.871 342.033 107.475L340.987 111.668H335.052C335.743 109.922 336.098 106.735 336.098 101.9V65.2453C335.753 61.052 335.407 57.9144 334.352 56.168L334.362 56.1779ZM344.475 79.8579C343.429 80.5485 342.383 81.6043 341.683 82.6501V102.64C344.125 105.783 347.267 107.179 351.056 107.179C354.199 107.179 356.64 106.133 358.037 103.691C359.783 100.899 360.829 97.0604 360.829 91.4759C360.829 86.5425 360.138 83.0991 358.387 81.0073C356.991 78.9156 354.549 77.8648 351.056 77.8648C348.964 77.5195 346.517 78.2101 344.426 79.9565L344.475 79.8579ZM376.936 61.1112C376.936 59.7151 377.282 58.6692 378.332 57.6233C379.383 56.5775 380.424 56.2272 381.82 56.2272C383.216 56.2272 384.262 56.5725 385.308 57.6233C386.354 58.6741 386.704 59.7151 386.704 61.1112C386.704 62.5073 386.359 63.5532 385.308 64.5991C384.257 65.6449 383.216 65.9952 381.82 65.9952C380.424 65.9952 379.378 65.6499 378.332 64.5991C377.287 63.5483 376.936 62.5073 376.936 61.1112ZM378.387 111.323V72.9413L384.667 71.8955V111.333L378.387 111.323ZM398.229 82.6995C398.229 79.9072 398.229 78.1608 397.883 77.4701C397.883 76.4243 397.193 75.3784 396.487 73.632L402.422 71.8856C403.377 73.7159 403.857 75.7565 403.818 77.8204C407.656 73.9823 411.845 71.8856 416.033 71.8856C418.125 71.8856 419.871 72.2309 421.617 73.2817C423.364 74.3325 424.76 75.7237 425.456 77.4751C426.146 78.8712 426.501 80.2673 426.501 82.0137V111.328H420.567V85.1563C420.567 82.0137 420.221 79.9269 419.171 78.8761C418.627 78.3172 417.975 77.8742 417.255 77.5741C416.535 77.2739 415.762 77.1228 414.982 77.1297C413.586 77.1297 411.494 77.8204 409.398 78.8761C407.458 79.8669 405.691 81.1628 404.163 82.7143V111.328H398.229V82.6995ZM440.458 81.3033L437.315 77.11C442.545 73.6221 447.784 71.8807 453.368 71.8807C458.953 71.8807 462.446 73.9724 464.187 77.8155C464.878 79.2116 464.878 81.3033 464.878 84.4459V86.5376L464.533 99.1028V100.849C464.533 102.941 464.533 104.337 464.878 105.388C465.223 106.784 466.274 107.83 467.67 108.53L464.528 112.724C461.735 111.678 459.989 109.931 459.298 107.139C455.81 110.627 451.967 112.369 448.129 112.369C444.291 112.369 441.149 111.323 438.756 109.226C436.664 107.48 435.613 104.687 435.613 101.199C435.521 99.202 435.957 97.2154 436.875 95.4394C437.794 93.6633 439.164 92.1603 440.848 91.0812C444.335 88.6392 449.57 87.5933 455.855 87.5933H458.647V84.8011C458.647 81.6585 458.302 79.5717 457.251 78.8663C456.589 78.1513 455.777 77.5926 454.872 77.2308C453.968 76.869 452.994 76.7131 452.022 76.7745C449.93 76.7745 447.483 77.4652 444.691 78.5209L440.497 81.3132L440.458 81.3033ZM458.958 101.895L459.303 91.7817H456.161C450.576 91.7817 447.083 92.8276 444.992 94.9243C443.595 96.3204 442.9 98.4121 442.9 101.204C442.9 105.743 444.992 108.185 449.53 108.185C451.511 108.072 453.426 107.429 455.074 106.325C456.723 105.22 458.045 103.694 458.904 101.905L458.958 101.895ZM484.779 72.9265H494.547L492.801 77.8599H484.774V102.64C484.774 104.732 485.119 106.128 485.82 107.179C486.511 107.869 487.912 108.575 489.658 108.575C491.054 108.575 492.45 108.229 493.496 107.884L494.187 111.722C492.095 112.768 489.993 113.118 487.556 113.118C481.622 113.118 478.834 110.326 478.834 104.396V77.8747H473.6V72.9413H478.533V72.2507C478.533 71.56 478.879 68.7628 479.224 64.2241V63.1733L485.504 61.7772C484.813 65.9705 484.813 69.8037 484.813 72.9463L484.779 72.9265ZM500.832 92.1172C500.832 85.8371 502.228 80.9481 505.371 77.4652C508.163 73.9773 512.351 71.8807 517.235 71.8807C522.82 71.8807 527.349 73.9724 530.496 78.5111C532.938 81.9989 533.984 86.8879 533.984 92.8177C533.984 99.7984 531.892 105.383 528.049 108.871C525.16 111.409 521.426 112.778 517.581 112.709C512.351 112.709 508.503 110.963 505.366 107.124C502.574 103.637 500.832 98.4023 500.832 92.1172ZM525.612 82.0039C523.866 78.8613 521.419 77.0705 517.586 77.0705C513.752 77.0705 511.305 78.4667 509.559 81.2639C508.163 83.3556 507.813 86.8484 507.813 91.3772C507.813 97.312 508.503 101.491 510.255 103.942C512.006 106.394 514.448 107.781 517.931 107.781C522.124 107.781 524.912 105.689 526.308 101.846C526.998 99.754 527.354 96.9124 527.354 93.4689C527.354 88.2396 526.663 84.3916 525.607 81.9545L525.612 82.0039ZM545.493 81.994C545.493 78.5061 545.148 75.7139 544.097 73.6172L550.032 71.8708C550.987 73.7011 551.467 75.7417 551.428 77.8056V78.4963C554.571 74.3029 558.059 72.2161 562.247 72.2161C562.938 72.2161 563.643 72.2161 564.339 72.5615L561.897 79.1919C561.206 78.8465 560.501 78.8465 560.15 78.8465C558.754 78.8465 557.008 79.1919 555.612 80.2427C554.216 81.2935 552.82 82.3344 552.124 83.7305C551.665 85.0792 551.429 86.4942 551.428 87.9189V111.994H545.493V81.994Z" fill="white"/>
</svg>
